<svg id="Graphic_Elements" data-name="Graphic Elements" xmlns="http://www.w3.org/2000/svg" viewBox="0 0 346.5 214.57"><defs><style>.cls-1{font-size:110px;font-family:PublicSans-Medium, Public Sans;font-weight:500;}</style></defs><g id="Graphic_Elements-2" data-name="Graphic Elements"><path d="M1064.13,301.31c-.24.06-.26.05-.31.19a1.06,1.06,0,0,1-.54.48,3.6,3.6,0,0,0-.8.59c-.15.15-.39.2-.45.44,0,0,0,0-.06,0-.43-.06-.74.22-1.1.37l-.08,0,.21-.28c-.06,0-.13-.05-.17,0a.74.74,0,0,0-.22.21c-.13.24-.43.28-.55.52a.61.61,0,0,1-.24.17,2.46,2.46,0,0,0-.77.28c-.07.05-.22,0-.33,0s-.18,0-.21,0-.31.11-.49,0l0,.19-.3.08-.11-.26-.38.4-.26-.22c-.07.14-.2.16-.32.21s-.19-.19-.35-.16l0,.34-.06,0-.17-.22c-.28,0-.56.09-.63.48a1.15,1.15,0,0,0-.34-.16.76.76,0,0,0-.41.1,2.8,2.8,0,0,0-.37.34.62.62,0,0,0-.16-.07c-.09,0-.21-.08-.27-.05a1.6,1.6,0,0,1-.61.14,1.84,1.84,0,0,0-.45.13l-.21-.17-.1.2a4.18,4.18,0,0,1-.54.1c-.2,0-.41,0-.61,0a.57.57,0,0,0-.55.23c-.16-.15-.34-.08-.53,0s-.29.11-.39.06c-.25-.12-.45,0-.68,0s-.49.07-.74.09c-.53.05-1,.09-1.58.12-.9.06-1.79.1-2.69.14l-.9.05a7.28,7.28,0,0,1-1.32,0c-.22,0-.45.06-.67.06s-.32.08-.47-.06-.09,0-.14,0a2.28,2.28,0,0,1-.51.09c-.64,0-1.28-.08-1.93-.13.16-.08.15-.23.15-.38-.11.11-.26.2-.13.39l-.4-.07s-.09,0-.1,0c-.18.17-.36,0-.54,0s-.19-.07-.22-.18c.14.05.28.1.38-.13-.17,0-.32-.09-.38.14-.25.09-.25.09-.46-.28,0,.09,0,.15,0,.2s0,.12-.05.21l-.81-.1c.1-.23-.22-.31-.13-.55-.21.08-.33.2-.3.42v0l-.63,0-.23,0c-.14,0-.29.07-.44-.1s-.31,0-.48,0l-.09-.19a.77.77,0,0,1-.28.07c-.17,0-.34-.08-.52-.11a2.63,2.63,0,0,1-.39-.06,3.66,3.66,0,0,1-.45-.22.22.22,0,0,1-.32,0,.19.19,0,0,0-.15,0,3.7,3.7,0,0,1-1.39-.35.36.36,0,0,0-.2,0,.24.24,0,0,1-.3-.09s-.08,0-.11,0c-.23.09-.36,0-.44-.23-.11,0-.24.1-.3.07-.32-.19-.75-.11-1-.44a2,2,0,0,1,.16-.22l-.62-.3-.06.07c.05.05.09.15.14.15a.41.41,0,0,1,.39.31c-.28.14-.52,0-.76-.12l-.53-.24c0-.15-.11-.37-.18-.58-.29.1,0,.29-.11.44l-.83-.24c.1-.17.21-.29.07-.44s-.23,0-.38,0l.29.21c-.14.1-.21.16-.38.06a4.26,4.26,0,0,0-.66-.22,2.68,2.68,0,0,1-.49-.21c-.32-.16-.73-.14-1-.44,0,0-.07,0-.11,0a2.46,2.46,0,0,1-1.21-.51c-.08-.08-.24-.06-.35-.12-.44-.22-.86-.48-1.31-.69a10.25,10.25,0,0,0-1-.41s-.14,0-.18-.05c-.29-.36-.83-.35-1.09-.75l-.06,0a2.91,2.91,0,0,1-.35-.2,1.48,1.48,0,0,1-.21-.3c-.07,0-.14.1-.18.09a.72.72,0,0,1-.33-.46.59.59,0,0,1-.66-.23,4.1,4.1,0,0,0-1.07-.72s-.09,0-.09-.05c-.06-.33-.4-.39-.61-.5s-.4-.39-.69-.46-.34-.23-.53-.33a1,1,0,0,0-.36-.39l-.88-.67c-.18-.15-.27-.38-.5-.5a7.38,7.38,0,0,1-.71-.54,4,4,0,0,1-.7-.61,7.68,7.68,0,0,0-.68-.58,1.06,1.06,0,0,1-.15-.15c-.07-.07-.12-.15-.19-.21s-.14-.1-.13-.12c.07-.26-.27-.22-.28-.4-.46-.26-.7-.73-1.08-1.06a1.34,1.34,0,0,1-.43-.49.21.21,0,0,1,0-.13c-.14-.1-.33-.18-.4-.31a2.28,2.28,0,0,0-.46-.6,6,6,0,0,1-.7-.9,5.32,5.32,0,0,0-.47-.48,2.14,2.14,0,0,1-.13-.19c-.22-.36-.44-.72-.65-1.08,0,0,0-.05,0-.06a6.79,6.79,0,0,1-1.06-1.4c-.19-.3-.49-.55-.51-.95a.13.13,0,0,0-.06-.09.85.85,0,0,1-.38-.54,3.26,3.26,0,0,0-.36-.58c-.14-.26-.23-.55-.39-.81s-.36-.85-.58-1.25a13.56,13.56,0,0,1-.73-1.6,2.85,2.85,0,0,0-.16-.3,1.67,1.67,0,0,1-.12-.23c-.08-.24-.14-.49-.23-.73s-.21-.35-.3-.53a3.09,3.09,0,0,1-.18-.59c-.06-.19-.19-.33-.23-.51s0-.38,0-.66l-.1.27h-.08l0-.46a2,2,0,0,1-.59-1,1.5,1.5,0,0,1,0-.29s-.16-.05-.17-.11a10.22,10.22,0,0,1-.52-1.71,3.06,3.06,0,0,0-.17-.48c0-.18-.06-.37-.09-.55a.38.38,0,0,0-.06-.16.46.46,0,0,1-.08-.38c0-.15-.06-.33-.1-.49s0-.3-.07-.44,0-.13,0-.15c-.23-.2-.2-.48-.24-.74s0-.33,0-.5c-.06-.43-.14-.86-.18-1.3a14,14,0,0,0,0-1.45,12.34,12.34,0,0,1-.08-1.48,7.13,7.13,0,0,1,.05-1.73,13.39,13.39,0,0,1,.15-1.42,1.27,1.27,0,0,0,0-.34c0-.17.06-.34.09-.52s.06-.32.07-.48c0-.44,0-.88.07-1.32,0-.12,0-.32.2-.38,0,0,.05-.08.11-.19l-.23.12a3.16,3.16,0,0,1,.29-1.52,1,1,0,0,1-.05-.87.38.38,0,0,0,0-.1c-.09-.57.26-1.05.34-1.58a5.22,5.22,0,0,1,.53-1.16l.12-.23a1.36,1.36,0,0,1,.11-.28,6.47,6.47,0,0,0,1-2.39c.06-.23.06-.23.26-.33a1.48,1.48,0,0,1,0-.38,8.54,8.54,0,0,1,.6-1.5c.22-.36.31-.75.5-1.11s.28-.57.43-.85a1.28,1.28,0,0,1,.23-.24c-.2-.2.09-.34.12-.53a.39.39,0,0,1,.49-.34l-.17-.25c.1-.2.18-.38.28-.56a1.42,1.42,0,0,1,.22-.28c0-.05.11-.08.12-.13a1.71,1.71,0,0,1,.46-.7.8.8,0,0,0,.26-.54.68.68,0,0,1,.31-.52c.2-.11.17-.3.3-.41s.08-.28.26-.3c0,0,0-.06,0-.08-.09-.22.11-.34.19-.49s.25-.24.36-.37.2-.28.32-.45c-.07-.17,0-.31.1-.49.26-.43.63-.78.86-1.22.06-.11.18-.19.25-.3.18-.28.36-.57.53-.86,0,0,0-.07,0-.07.31-.1.4-.39.56-.64a8.72,8.72,0,0,1,.51-.73s0-.07.08-.07c.28,0,.32-.27.37-.45s.24-.19.33-.3a1.86,1.86,0,0,1,.43-.41c.16-.11.24-.34.36-.5s.13-.25.3-.23.09,0,.09-.06c.1-.38.45-.57.68-.85a7.84,7.84,0,0,1,.54-.61c.29-.3.6-.59.91-.86a.48.48,0,0,0,.17-.27c.06-.19.12-.42.41-.4,0,0,.08-.08.12-.12a8.4,8.4,0,0,1,.7-.76c.23-.22.52-.39.75-.63.4-.42.8-.83,1.22-1.22a7,7,0,0,0,.7-.61,3.82,3.82,0,0,1,.61-.66c.22-.19.51-.3.64-.59.23.05.2-.17.29-.26s.34-.21.49-.33.62-.33.75-.68c.34-.1.47-.55.89-.51a1.51,1.51,0,0,1,.79-.76c.14,0,.22-.23.39-.32a3,3,0,0,0,.55-.47.41.41,0,0,1,.19-.11c.14,0,.28-.06.32-.22s0-.05,0-.06.3-.11.34-.21.23-.19.36-.25a.91.91,0,0,0,.48-.38l.08-.08a7.69,7.69,0,0,0,1.43-.87,1.3,1.3,0,0,1,.55-.22.3.3,0,0,0,.25-.16.87.87,0,0,1,.53-.33,1.44,1.44,0,0,0,.47-.22c.84-.41,1.67-.83,2.52-1.22.61-.28,1.27-.48,1.87-.78s1.4-.46,2.08-.76a8.29,8.29,0,0,1,.79-.28c.5-.16,1-.29,1.5-.44.26-.08.49-.2.75-.28l1.69-.52c.39-.12.78-.28,1.17-.41s.72-.25,1.08-.36a10.21,10.21,0,0,1,1.2-.34c.7-.11,1.35-.35,2-.52.39-.1.76-.27,1.15-.38a6.38,6.38,0,0,1,1.68-.3c.53,0,1-.12,1.58-.17a1.24,1.24,0,0,1,.33,0,1.83,1.83,0,0,1,.42-.21,1.92,1.92,0,0,1,.46,0,1,1,0,0,1,.95-.16,1.14,1.14,0,0,1,.29-.17c.33-.05.65-.09,1-.11a.33.33,0,0,1,.34.29c0,.05,0,.1,0,.21a.79.79,0,0,0,.1-.55,1.57,1.57,0,0,1,2.11,1.2c0,.09,0,.22.06.29a1.4,1.4,0,0,1,.14.8c0,.09,0,.17,0,.26s0,.21,0,.21c-.24,0-.16.24-.23.36s0,.12-.06.13c-.28.08-.43.32-.63.51,0,0-.1.07-.11.12a.81.81,0,0,1-.36.41,2.2,2.2,0,0,0-.23.2l-.28.18c0,.19-.17.3-.3.46s-.36.25-.31.52c0,0-.08.15-.14.15s-.22.17-.3.3-.35.45-.54.66-.62.65-.93,1l-.2.17s-.12.05-.16.1c-.33.34-.66.69-1,1.05s-.48.55-.71.83c-.36.44-.69.89-1.06,1.32a14.18,14.18,0,0,1-1.16,1.3,5.49,5.49,0,0,0-.49.67c-.11.14-.25.25-.35.39s-.26.39-.4.58l-.94,1.23c-.17.23-.32.47-.49.7s-.38.5-.56.76c-.34.49-.76.93-1,1.44s-.52.82-.78,1.23c-.39.62-.8,1.23-1.21,1.83a5.59,5.59,0,0,1-.47.53c.1.22,0,.42-.19.62a9.93,9.93,0,0,0-1.31,2,8.05,8.05,0,0,0-.87,1.36,2.91,2.91,0,0,0-.42.89,1.6,1.6,0,0,1-.46.73.59.59,0,0,0-.21.46v0a5.5,5.5,0,0,1-.69,1.18l.13.14c-.09.21-.17.44-.27.66a5.23,5.23,0,0,1-.44,1,6.3,6.3,0,0,0-.57,1.47l-.27.67s-.06.1,0,.14c.07.34-.17.58-.26.87s-.1.37-.17.55a1.77,1.77,0,0,0-.24.55,8.87,8.87,0,0,1-.17,1,4.84,4.84,0,0,1-.3.8c-.06.14-.18.26-.06.42s0,.1,0,.14c0,.19,0,.37-.07.55,0,0,0,.06,0,.08a10.18,10.18,0,0,0-.35,1.64c-.06.19-.08.4-.13.62l-.31,0c0,.07,0,.18.1.22.22.13.12.3.08.47s0,.23-.07.35-.06.21-.1.39a.57.57,0,0,1,.05.59.41.41,0,0,0,0,.22c0,.19,0,.19-.2.36,0-.09-.11-.17-.17-.27,0,.34,0,.35.36.41a.86.86,0,0,1,0,.17c0,.13-.19.25,0,.39,0,0,0,.16,0,.25a1.49,1.49,0,0,0,.11.26.6.6,0,0,0,0,.56.64.64,0,0,1,0,.3s-.06.11,0,.14c.21.35,0,.77.17,1.14.08.15-.08.39,0,.59a.85.85,0,0,1,0,.26c0,.09-.12.18-.12.27a4.17,4.17,0,0,0,0,.71c0,.18.16.37,0,.54a0,0,0,0,0,0,0c.24.43-.15.91.09,1.35.06.12,0,.29,0,.44a16,16,0,0,1,.1,1.69c0,.26,0,.54,0,.78s.18.6.06.94l-.23.09,0,.08h.11c.11,0,.24,0,.25.15l-.4.1.13.4.36-.2a2,2,0,0,0-.08.51,1.45,1.45,0,0,0,.19.46l-.34.11c.06,0,.08.07.11.07h.29a1.08,1.08,0,0,0,.09,1.1.26.26,0,0,1,0,.15,5,5,0,0,0,.14,1.27.2.2,0,0,1,0,.11,4.3,4.3,0,0,0,.37,1.58s0,.08,0,.11c-.15.26.09.49,0,.76s.07.28.09.43a1.38,1.38,0,0,1,0,.26l.29.19c.07.35.14.69.2,1,0,.15.22.24.17.4s.1.35.18.51.08.35.15.51a6.18,6.18,0,0,1,.37,1.2c.09.39.3.73.37,1.11s.31.49.41.77a12.26,12.26,0,0,0,.56,1.29,3.57,3.57,0,0,0,.4.68c.08.1-.07.31.2.34.09,0,.15.23.24.36s.17.24.25.37.05,0,.05,0c.16.54.63.86.9,1.31s.68.8.69,1.36h0l-.18.44a1.46,1.46,0,0,0,.39,0,.37.37,0,0,1,.45.17c.32.4.67.77,1,1.17a11.13,11.13,0,0,1,1,1.11.2.2,0,0,0,.08.08c.4.35.81.69,1.21,1.05s.5.49.78.7.65.55,1,.83a4.09,4.09,0,0,0,.51.4,1.34,1.34,0,0,1,.26.27.57.57,0,0,0,.26.22c.21.08.45.16.53.43,0,.07.24.08.38.13-.07.47.43.27.62.47l-.1.14.08.05a1.34,1.34,0,0,1,.56.22c.09.09.16.32.39.18,0,0,.11.14.18.18l.88.49.2-.14c.27.1.58.18.52.58.11.08.18-.21.31,0s.2-.14.33,0a1.31,1.31,0,0,0,.28.17l.32.23a.21.21,0,0,1,.27.06,3.28,3.28,0,0,0,.73.47l.32-.12c.29.16.57.32.86.46a.34.34,0,0,0,.22,0c.2,0,.38-.07.51.14,0,.05.15,0,.23.05l0,.21a2.68,2.68,0,0,0,.39,0,.54.54,0,0,1,.42.15,1,1,0,0,0,.88.26.84.84,0,0,1,.56,0l-.24.19,0,.07h.75c0,.07.1.15.18.27l.42-.11a.67.67,0,0,1,.24,0,3.21,3.21,0,0,0,1,0,2,2,0,0,1,.82.06l-.32.1c.11.06.17.12.24.12h.82c.16,0,.31.1.47,0s.11,0,.21.06l-.21.19s.09.06.11,0l.36-.28a.82.82,0,0,0,.92.11,1.61,1.61,0,0,1,.76,0c.07,0,.16.06.22,0a1.55,1.55,0,0,1,.85.11,3.62,3.62,0,0,0,.74.17c.21,0,.41.18.63.23a4.7,4.7,0,0,1,1.18.55,1,1,0,0,1,.5.63c.09.28.3.52.26.84,0,.14,0,.28-.06.47l-.47.12a.75.75,0,0,1-.52.49l.07.27Zm-35.84,2.78.35.06.21.14a1.41,1.41,0,0,1,0-.33,1,1,0,0,1,.16-.25c-.13-.15-.19,0-.24.06l-.18.4c-.09-.18-.23-.07-.35-.07l0-.29a.38.38,0,0,0-.14.23Zm1.51-35.43h.09l-.09-.58C1029.58,268.26,1029.58,268.26,1029.8,268.66Zm-.47-1.47,0,.09h.45l-.11-.35Zm-3.55,35.45c-.21-.24-.24-.23-.39.1Zm9,2.76.25.38c0-.12.09-.22.07-.26S1035,305.29,1034.77,305.4Zm-5.06-39-.5.23C1029.54,266.73,1029.59,266.71,1029.71,266.39Zm-.42-.64c.14-.06.31-.09.35-.3C1029.4,265.44,1029.37,265.62,1029.29,265.75Zm-1.08,37.52a.34.34,0,0,0-.36.21c.07,0,.16.07.21,0S1028.14,303.4,1028.21,303.27Zm1.14-49,.2-.31,0,0-.37.27Zm4.3,26.43v-.27l-.2,0,0,.11Zm-.85-.16c.09.14.19.18.31,0Zm-7,22.79v-.09l-.18-.05,0,.13Zm3.45-47.51-.16-.31C1029.06,255.63,1029.05,255.72,1029.3,255.77Zm-10.59-28.39,0,.08.26-.11,0-.08Zm10.47,40.42c.27.05.27.05.24-.16Zm-24.07,20,.21-.22C1005,287.59,1005,287.59,1005.11,287.8Zm-.54-.92,0,.06.16-.06,0-.05Zm24.54-25.32c.17,0,.17,0,.15-.21Zm7,44.16.1,0s0,0,0-.05l-.08,0S1036.16,305.69,1036.14,305.72Zm-36.91-29.23.07-.15s-.09,0-.13,0-.06.06-.06.07A.69.69,0,0,0,999.23,276.49Zm36,28.69c.14.18.22.15.3,0Zm-1.93-25,0-.06-.13,0s0,.06,0,.06Zm-1,25,0-.08-.15-.08s0,.06,0,.06Zm-23-12.6.07-.05-.1-.12,0,0Zm20-38.93,0,0,.09-.1-.06-.06Zm-17.52,41.71,0-.08-.15-.05,0,.06Zm17.46,8.92a.93.93,0,0,0-.07.15s0,.06.07.06.09-.05.1-.08S1029.29,304.36,1029.24,304.3Zm-1.67-1.05h-.1l0,.2h.06Zm2.27-48.34-.06-.06-.12.13,0,0Zm.69-7c0,.05,0,.09,0,.11a.1.1,0,0,0,.08.05.11.11,0,0,0,.05-.08S1030.59,248,1030.53,248Zm-19.74-11.43,0,.08.17-.06,0-.06Zm18.5,27.71s0,.06,0,.06l.09,0s0-.05,0-.05A.32.32,0,0,0,1029.29,264.23Zm-18.56,30.34,0-.07-.17-.05,0,.05Zm3.58,2.6c0,.05,0,.08,0,.11s.05,0,.07.05,0-.06,0-.08S1014.34,297.2,1014.31,297.17Zm7.22.71s0,.06.05.06l.08,0s0,0,0,0Zm25.78-3.64s0,.05,0,0a.47.47,0,0,0,.09-.06s0-.06-.06-.05A.18.18,0,0,0,1047.31,294.24Zm-21,8.74,0,0,.12-.09-.06-.07Zm.57.46-.07,0-.06.17.06,0Zm30.21-6.3s0,.07,0,.1.06,0,.07,0a.25.25,0,0,0,0-.09Zm1,.24,0,.08.18-.07,0-.06Zm-25.22,7.23v.05l.18,0v-.05Zm.35.79a.24.24,0,0,0,.06-.08s0,0,0-.05l-.09.09Zm4.6.5,0,.06.16.05,0-.06Zm25.5-4.18s0,.06,0,.06l.1,0s0-.05,0-.05Z" transform="translate(-718.93 -199.99)"/><path d="M1064.13,301.31c.16.14.12.24-.07.34,0-.13,0-.23.07-.34Z" transform="translate(-718.93 -199.99)"/><path d="M1037,285.38l.33,0c-.18.2-.26.15-.33,0Z" transform="translate(-718.93 -199.99)"/><path d="M1053.81,296.41l-.18,0,0-.07.18,0Z" transform="translate(-718.93 -199.99)"/><path d="M1035.36,305.91v0l.15-.06,0,.09Z" transform="translate(-718.93 -199.99)"/></g><path d="M953.7,222.08a2.26,2.26,0,0,1-.28.25c-.06,0-.09.14-.13.21l-.12,0,0,.16c-.14,0-.15.19-.24.29s-.38.4-.55.61a1.32,1.32,0,0,1-.25.28,1.08,1.08,0,0,0-.24.28,1,1,0,0,0-.13.27l.29.05c.78.11,1.57.22,2.35.31.62.08,1.25.15,1.87.2s1.33.08,2,.12l1.5.08c.48,0,1,0,1.43.07s.73.08,1.1.12.78.13,1.17.18l2.1.22c.32,0,.64,0,.95.05l1.46.08.4.06a1.21,1.21,0,0,1-.25.13c-.35.07-.7.15-1,.2-.52.08-1,.12-1.56.19-.23,0-.45.09-.68.12l-1.43.17-1.21.1c-.51.06-1,.14-1.53.19-.35,0-.69,0-1,0s-.55,0-.82.06a2.65,2.65,0,0,1-.68.06c-.19,0-.35.05-.53.05a.77.77,0,0,1-.37-.08.26.26,0,0,1-.38.07,1.25,1.25,0,0,0-.57-.07l-.08,0a.37.37,0,0,1-.4,0,.55.55,0,0,0-.4,0,.81.81,0,0,1-.51,0,.88.88,0,0,0-.33.05.21.21,0,0,1-.19,0c-.13-.07-.16,0-.26.09l0-.15c-.18.11-.42,0-.56.23l.32.36a1.79,1.79,0,0,1,.2.26c.09.17.16.36.26.52.53.8,1.05,1.59,1.59,2.38.38.56.77,1.11,1.16,1.66s1,1.34,1.47,2,1,1.23,1.53,1.85l.79,1c0,.05.12.12,0,.18a.27.27,0,0,1-.2,0,.21.21,0,0,0-.19,0s-.08,0-.12-.06l-1.07-1-1.45-1.33c-.27-.26-.53-.53-.79-.8l-.73-.75-.69-.71-.54-.51c-.45-.43-.91-.86-1.34-1.3a4.74,4.74,0,0,1-.51-.67c0-.09-.14-.12-.2-.19a5.9,5.9,0,0,0-.49-.51c-.16-.16-.28-.36-.42-.53a1.84,1.84,0,0,0-.23-.25.27.27,0,0,0-.35,0,.19.19,0,0,0-.05.28.23.23,0,0,1,0,.35h.12a.68.68,0,0,1,0,.14c0,.12-.08.25,0,.36s0,.1,0,.15a1.94,1.94,0,0,0,0,.68,1.21,1.21,0,0,1,0,.33c-.07,0-.08.1-.06.18h.09s0,.08,0,.11,0,.11,0,.18,0,.13,0,.2,0,.34,0,.51,0,.21,0,.32,0,.35.05.53,0,.14-.11.09,0,.08,0,.1a.58.58,0,0,1,.07.48.5.5,0,0,0,0,.12.53.53,0,0,1,0,.12c0,.28,0,.56,0,.84a.9.9,0,0,1-.08.25,1.58,1.58,0,0,1,0,.32c0,.13-.06.26-.07.39s0,.28,0,.42,0,.2,0,.3c0,.28-.06.57-.08.86l-.06,1.43c0,.57,0,1.13-.06,1.7,0,.31,0,.62-.07.94s0,.44,0,.65c0,.61-.14,1.21-.18,1.82s0,1.05,0,1.58-.1,1.23-.15,1.85c0,.43,0,.85-.05,1.27l-.15,1.82c0,.57-.12,1.15-.17,1.73s-.09,1.22-.14,1.83a.87.87,0,0,1-.11.25l-.15-.14s-.06,0-.07,0-.15.12-.21,0a1.08,1.08,0,0,1-.11-.36c-.2-1.17-.36-2.36-.45-3.55-.05-.73-.09-1.46-.13-2.19l-.06-1.33a.15.15,0,0,1,.13-.2l-.17-.07c0-.5-.06-1-.08-1.52a1,1,0,0,1,0-.39c0-.11,0-.26,0-.39a4.81,4.81,0,0,1,0-1.07,2.16,2.16,0,0,0,0-.35,5.37,5.37,0,0,1,0-1.06c0-.07,0-.15,0-.23,0-.44,0-.89,0-1.34s-.05-.65-.07-1-.07-.93-.08-1.39c0-.26,0-.51,0-.77a2.32,2.32,0,0,1,.12-.87.11.11,0,0,0,0-.08c-.08-.06,0-.15-.07-.23a.93.93,0,0,1,0-.24c.06,0,.15.05.14-.08a.45.45,0,0,1-.13-.11s0-.1,0-.14,0-.05,0-.07-.05-.15,0-.2,0-.14,0-.2,0-.05,0-.08l.05-.06c-.1-.15,0-.31,0-.47a4.92,4.92,0,0,1,0-.77s0,0,0-.06c0-.21,0-.21.11-.33l-.11,0,0-.6c0-.13,0-.26,0-.39,0-.34,0-.68,0-1,0,0,0-.08,0-.12a3.75,3.75,0,0,0,0-.67,8.32,8.32,0,0,1,0-1c0-.2,0-.4,0-.61s0-.39,0-.58,0-.1,0-.15a.48.48,0,0,0,0-.2c-.08.08-.22.09-.22.23s0,0-.06.06l-.46.44c-.15.15-.29.31-.43.46s-.22.3-.36.37-.27.25-.42.36-.29.24-.44.36c-.39.32-.77.63-1.15,1s-.6.56-.93.8c-.55.43-1.09.88-1.61,1.34-.31.27-.61.55-.92.81s-.48.39-.72.59l-1,.83a16.9,16.9,0,0,1-1.54,1.13c-.19.12-.37.25-.58.4,0,0,0-.08,0-.11.39-.62.8-1.23,1.24-1.82s.62-.89.94-1.33l1-1.36c.16-.22.31-.46.47-.7a6.42,6.42,0,0,1,.38-.53c.22-.3.46-.58.7-.87a.48.48,0,0,1,.11-.09c0,.07,0,.13.13.06s-.05-.13-.14-.06a5.14,5.14,0,0,1,.78-1c.2-.2.38-.4.57-.6a.7.7,0,0,1,.16-.14.62.62,0,0,0,.31-.43.34.34,0,0,1,.19-.2c.13-.06.17-.19.27-.26s.12-.12.11-.17a.4.4,0,0,1,.1-.23c-.18,0-.36-.07-.53.05l-.06-.11c0,.08-.09.13-.17.05a.17.17,0,0,0-.22,0c-.06,0-.15,0-.23,0-.56-.07-1.12-.1-1.69-.13s-1.42-.11-2.13-.18c-.42,0-.85-.12-1.28-.16-.78-.09-1.57-.16-2.36-.24l-1.37-.11c-.8-.08-1.6-.17-2.4-.23-.47,0-.94,0-1.4-.07l-.5-.06c0-.13.1-.21.23-.23l1.23-.2c.67-.09,1.35-.17,2-.27l2.24-.32c.45-.06.9-.08,1.35-.12l1.6-.13c.21,0,.43,0,.65,0s.57,0,.86,0,.44,0,.66,0a8.44,8.44,0,0,0,1-.05l1.67-.08,1,0h.13a2.21,2.21,0,0,1,.77,0l1,0h.27c.13,0,.16-.05.1-.16a.27.27,0,0,0-.09-.12.24.24,0,0,1-.13-.2c0-.06-.13-.08-.14-.19s-.08-.14-.14-.18-.08-.13-.12-.2a2.78,2.78,0,0,0-.27-.33.9.9,0,0,1-.14-.2.22.22,0,0,0-.13-.12s0-.15-.12-.09,0,0-.06-.05l-.39-.6s0,0-.07-.07a.64.64,0,0,1-.1-.13v0c-.19-.07-.2-.29-.34-.4a.53.53,0,0,1-.12-.17c0-.23-.29-.3-.38-.48a1.19,1.19,0,0,0-.08-.16.54.54,0,0,0-.09-.12c-.06-.06-.14-.1-.17-.17a3.67,3.67,0,0,1-.26-.48c0-.08-.1-.15-.14-.24s-.15-.23-.21-.35,0-.09,0-.16l-.13,0c-.11-.17-.23-.35-.34-.54,0,0,0-.09,0-.15s-.09,0-.11-.05a.24.24,0,0,1,0-.15c0-.07,0-.17-.08-.18s-.19-.2-.25-.31-.08-.09-.14-.13l.11-.18-.17.05c-.18-.26-.38-.51-.55-.78s-.23-.26-.2-.46a.09.09,0,0,0,0-.05c-.19-.08-.23-.27-.31-.41-.35-.59-.68-1.19-1-1.78-.09-.17-.19-.34,0-.52a1.25,1.25,0,0,1,.31.1,1.7,1.7,0,0,1,.36.29c.34.35.67.7,1,1.06a5,5,0,0,0,.38.42c.3.3.62.59.93.9l1.41,1.45c.28.28.58.54.86.82s.57.61.86.92l.64.68.38.38a5.28,5.28,0,0,0,.79.71.33.33,0,0,1,.12.17c0,.11.11.15.2.2a1.43,1.43,0,0,0,.13-.54,2.12,2.12,0,0,1,.06-.44v0c0-.09-.11-.15-.05-.25a.39.39,0,0,0,0-.24,2.57,2.57,0,0,1,0-.83c0-.08.12-.16,0-.24s0,0,0-.06.06-.31,0-.48a2,2,0,0,1,0-.49c0-.17,0-.34,0-.51s.06-.42.08-.62a.48.48,0,0,0,0-.12s0-.07,0-.08,0-.3,0-.45c0-.3.07-.59.08-.88s0-.6,0-.89a3,3,0,0,1,0-.43c0-.38,0-.75.05-1.13l0-.59c0-.15,0-.3,0-.45s0-.08,0-.12c0-.27.08-.54.1-.82s0-.66,0-1a.53.53,0,0,1,0-.12.29.29,0,0,0,0-.1,4.53,4.53,0,0,1,0-.52c.06-.8.14-1.6.2-2.4s.09-1.33.15-2,.11-1.12.18-1.68.17-1.33.27-2c0-.28.12-.56.18-.85a.75.75,0,0,1,.06-.13l.39.08c.06.36.11.72.17,1.08.09.59.2,1.18.28,1.78.05.39.07.78.1,1.18.06.67.11,1.35.16,2,.08.94.18,1.87.25,2.81s.13,2.14.19,3.21a3.37,3.37,0,0,1,0,.71c0,.18,0,.35,0,.52s0,.1,0,.16a.31.31,0,0,0,0,.08l0,0c-.07.15,0,.27.07.4s-.21.16,0,.25c0,.13,0,.28-.14.37l.12.12a.27.27,0,0,0-.11.36l0,0c-.1.11,0,.24,0,.36a.41.41,0,0,0,0,.16c0,.1.09.21,0,.3s0,.08,0,.13l.2,0-.13.14c0,.09,0,.19,0,.29v.28l-.1.16c.06.06.14.1.09.21a.25.25,0,0,0,0,.19.52.52,0,0,1-.07.4l.11.16H952c0,.16.1.32,0,.47a.44.44,0,0,1-.1.46l.1.07a2.45,2.45,0,0,0,0,.47s-.06.11-.1.17l.1.22h.23c0-.2,0-.21.19-.23a.38.38,0,0,0,.16-.06,2.25,2.25,0,0,0,.63-.52,2.13,2.13,0,0,1,.3-.3c.18-.14.33-.3.52-.43a4.57,4.57,0,0,0,.47-.42c.35-.3.69-.61,1-.91l1.16-.89c.3-.23.61-.47.91-.72l2-1.74a1.3,1.3,0,0,1,.2-.15.2.2,0,0,1,.17,0c.06,0,.06.1,0,.17l-.45.69c-.37.55-.74,1.11-1.13,1.65s-.68.87-1,1.3l-.88,1.11-1.42,2-.65.87s-.06,0-.09,0a.16.16,0,0,0-.12.17c0,.12-.1.19-.24.2-.07.18-.1.38-.34.41a.2.2,0,0,0,0,.09l-.14,0v0Zm-9.19-2.7c.11-.08.11-.08,0-.15h0c-.08.06-.07-.06-.14-.08l-.18.24.36.17s.07,0,.1,0l0,.17c.06-.11,0-.15,0-.16s-.15-.07-.13-.17Zm.86,1.24.12-.13C945.36,220.45,945.34,220.5,945.37,220.62Zm-1.45-1.87c0,.1,0,.14.08.13Zm-.41-.68,0-.18C943.37,218,943.42,218,943.51,218.07Zm6,28.23,0,0,.06-.07,0,0ZM949.32,232h0s0-.08,0-.12h0ZM945.67,221h0l0-.08,0,0Zm-1.39-2.3v0l.1,0v-.06Zm-.2-.06,0,0,.07-.08,0,0Zm5,2.75s0,.07,0,.07h.06Zm-3.8-1,0,0-.08-.08,0,0Zm4.63-5.6h0l0,.08h0Z" transform="translate(-718.93 -199.99)"/><path d="M981.28,243.1l-2.2.25c-.53.07-1.06.19-1.59.27l-1.26.16c-.25,0-.5.1-.74.16a.49.49,0,0,0-.38.49,9.38,9.38,0,0,1-.22,1.27c-.08.51-.16,1-.25,1.52s-.21,1.15-.31,1.73-.18,1.23-.25,1.85-.08,1.09-.11,1.64c0,.28,0,.56,0,.84a.12.12,0,0,1,0,.09,1.83,1.83,0,0,1-.06-.25l-.21-1.59c0-.08,0-.15,0-.23l-.21-1.2c-.09-.5-.19-1-.26-1.48,0-.17-.11-.34,0-.51,0,0,0,0,0,0a4.6,4.6,0,0,1-.23-1.43c0-.29-.14-.56-.17-.85s-.07-.44-.09-.67c0,0,0-.08.05-.12a.61.61,0,0,1-.07-.1c0-.15,0-.3,0-.45a.31.31,0,0,0-.33-.15.77.77,0,0,1-.5,0c-.82-.21-1.63-.44-2.45-.68L967.2,243l-.09,0c0-.08,0-.1.09-.11l.77-.13c.52-.08,1-.18,1.56-.23s1-.21,1.52-.27a3.87,3.87,0,0,0,.67-.1,1.53,1.53,0,0,0,.62-.29.78.78,0,0,1,.24-.16A.83.83,0,0,0,973,241c.08-.74.17-1.48.26-2.22.06-.45.12-.91.21-1.36,0-.19,0-.38.06-.57.06-.62.14-1.23.21-1.84.05-.4.08-.79.15-1.18.1-.54.12-1.08.17-1.63a.42.42,0,0,1,.1-.3c.11,0,.11.1.11.16.05.36.09.73.13,1.09,0,.51.11,1,.16,1.51s.12,1.18.17,1.77c0,.28.05.57.07.85,0,.46,0,.93.09,1.39s.09.78.14,1.18.07.61.1.91a2.56,2.56,0,0,1,0,.39.52.52,0,0,0,.47.63c.42.12.84.22,1.26.33l2.13.58a8.71,8.71,0,0,0,2,.32,1,1,0,0,1,.24,0S981.25,243.05,981.28,243.1Zm-7.95,1.48-.16-.06,0,0,.07.12Zm-.17,1.94c-.08.11,0,.15,0,.2h0Zm0-.34c.08,0,.08,0,.06-.1Z" transform="translate(-718.93 -199.99)"/><path d="M944.51,219.38h-.12l.11-.17h0v.15Z" transform="translate(-718.93 -199.99)"/><path d="M1054.64,323.34v88H722.11V229.77H919.5l-.09-3.18H718.93v188h338.89V323.45Z" transform="translate(-718.93 -199.99)"/><text x="-718.93" y="-199.99"/><text class="cls-1" transform="translate(88.04 166.68)">PV</text></svg>