<?xml version="1.0" encoding="utf-8"?>
<!-- Generator: Adobe Illustrator 26.0.1, SVG Export Plug-In . SVG Version: 6.00 Build 0)  -->
<svg version="1.1" id="Layer_1" xmlns="http://www.w3.org/2000/svg" xmlns:xlink="http://www.w3.org/1999/xlink" x="0px" y="0px"
	 viewBox="0 0 531 901" style="enable-background:new 0 0 531 901;" xml:space="preserve">
<style type="text/css">
	.st0{display:none;}
	.st1{display:inline;fill:url(#SVGID_1_);}
	.st2{display:inline;}
	.st3{display:inline;fill:url(#SVGID_00000007422992036946060830000013336926820784736163_);}
	.st4{display:inline;fill:#FDF7EA;}
	.st5{display:inline;fill:#262F3D;}
	.st6{fill-rule:evenodd;clip-rule:evenodd;}
	.st7{font-family:'ArialMT';}
	.st8{font-size:19.2388px;}
	.st9{font-size:10.8439px;}
	.st10{letter-spacing:2;}
	.st11{fill-rule:evenodd;clip-rule:evenodd;fill:#06123F;}
	.st12{fill-rule:evenodd;clip-rule:evenodd;fill:#FDF7EA;}
</style>
<g id="Layer_2_00000006667879615062812830000000551719401837164714_" class="st0">
	
		<radialGradient id="SVGID_1_" cx="64.8889" cy="696.4187" r="385.7808" gradientTransform="matrix(1 0 0 -1 0 838)" gradientUnits="userSpaceOnUse">
		<stop  offset="0.1" style="stop-color:#FFFFFF"/>
		<stop  offset="1" style="stop-color:#DADDDD"/>
	</radialGradient>
	<rect x="40" y="168" class="st1" width="750" height="500"/>
	
		<image style="display:inline;overflow:visible;opacity:0.3;enable-background:new    ;" width="6" height="198" xlink:href="63A0836F.png"  transform="matrix(1 0 0 1 761 445)">
	</image>
	<g class="st2">
		
			<image style="overflow:visible;opacity:0.3;enable-background:new    ;" width="11" height="456" xlink:href="63A0836A.png"  transform="matrix(1 0 0 1 65 190)">
		</image>
		
			<image style="overflow:visible;opacity:0.3;enable-background:new    ;" width="12" height="456" xlink:href="63A08369.png"  transform="matrix(1 0 0 1 529 190)">
		</image>
		
			<image style="overflow:visible;opacity:0.3;enable-background:new    ;" width="456" height="25" xlink:href="63A08376.png"  transform="matrix(1 0 0 1 74 642)">
		</image>
		
			<image style="overflow:visible;opacity:0.3;enable-background:new    ;" width="5" height="198" xlink:href="63A08379.png"  transform="matrix(1 0 0 1 560 190)">
		</image>
		
			<image style="overflow:visible;opacity:0.3;enable-background:new    ;" width="6" height="198" xlink:href="63A0837A.png"  transform="matrix(1 0 0 1 761 190)">
		</image>
		
			<image style="overflow:visible;opacity:0.3;enable-background:new    ;" width="198" height="11" xlink:href="63A08378.png"  transform="matrix(1 0 0 1 564 386)">
		</image>
		
			<image style="overflow:visible;opacity:0.3;enable-background:new    ;" width="5" height="198" xlink:href="63A0837D.png"  transform="matrix(1 0 0 1 560 445)">
		</image>
		
			<image style="overflow:visible;opacity:0.3;enable-background:new    ;" width="198" height="11" xlink:href="63A0837E.png"  transform="matrix(1 0 0 1 564 641)">
		</image>
	</g>
	
		<radialGradient id="SVGID_00000003819846419326893660000001215086397415632541_" cx="73.8256" cy="647.2714" r="812.1866" gradientTransform="matrix(1 0 0 -1 0 838)" gradientUnits="userSpaceOnUse">
		<stop  offset="0.1" style="stop-color:#FFFFFF"/>
		<stop  offset="1" style="stop-color:#DADDDD"/>
	</radialGradient>
	
		<rect x="74.9" y="192.5" style="display:inline;fill:url(#SVGID_00000003819846419326893660000001215086397415632541_);" width="454.9" height="454.9"/>
	<rect x="564.9" y="190.6" class="st4" width="197" height="197"/>
	<rect x="564.9" y="445.6" class="st5" width="197" height="197"/>
</g>
<g id="Layer_1_00000134947799784025353320000003562791032810899135_">
	<g class="st0">
		<g class="st2">
			<path class="st6" d="M84.8,278.9c0,23.6,0,143.5,0,167.2c0,7.1-24.2,5,218.1,5c0-60,0-109.1,0-172.2l-109-48.1L84.8,278.9z
				 M84.8,232.1c0,35.5-21.8,35.9,109.1-22c130.8,57.9,109,57.4,109,22l-109-48.1L84.8,232.1z M57.3,187.2
				c0,44.7-27.5,45.3,138-27.8c165.7,73.2,138,72.5,138,27.8l-138-60.9L57.3,187.2z M84.8,459c124.3,176.4,93.5,176.8,218.1,0
				C301.9,459,71.7,459,84.8,459z M193.8,613.7l13.1-18.5C177.1,599.6,173.6,585,193.8,613.7z M102.2,284.3
				c0,29.8-18.3,30.2,91.7-18.4c109.9,48.6,91.6,48.2,91.6,18.4C174.8,235.4,217.6,233.4,102.2,284.3z M116.4,312.2
				c0,25.2-15.5,25.5,77.4-15.6c92.7,41,77.3,40.7,77.3,15.6C173.8,269.2,210.2,270.9,116.4,312.2z M131.4,334.2
				c0,20.3-12.3,20.4,62.5-12.6c74.9,33.1,62.4,32.8,62.4,12.6C180.8,301,210,299.6,131.4,334.2z"/>
		</g>
		<g class="st2">
			<g>
				<g>
					<text transform="matrix(4.5872 0 0 1 -66 798.6719)" class="st7 st8">lorem ipsum</text>
				</g>
			</g>
			<g>
				<g>
					<text transform="matrix(4.5872 0 0 1 -6.21 810.5889)" class="st7 st9 st10">slogan here</text>
				</g>
			</g>
		</g>
	</g>
	<g>
		<g>
			<path class="st11" d="M66.5,289.1c0,42.5,0,258.1,0,300.6c0,12.8-43.6,9,392.1,9c0-107.8,0-196.2,0-309.6l-196-86.5L66.5,289.1z
				 M66.5,205c0,63.8-39.2,64.5,196.1-39.5c235.1,104,196,103.2,196,39.5l-195.9-86.6L66.5,205z M17.1,124.2
				c0,80.5-49.5,81.5,248.1-50c297.9,131.6,248.1,130.3,248.1,50L265.2,14.6L17.1,124.2z M66.5,612.9c223.5,317.1,168,317.9,392.1,0
				C456.9,612.9,42.9,612.9,66.5,612.9z M262.6,891l23.5-33.3C232.6,865.7,226.3,839.4,262.6,891z M97.8,298.8
				c0,53.6-33,54.3,164.8-33.1c197.6,87.4,164.7,86.7,164.7,33.1C228.3,211,305.3,207.3,97.8,298.8z M123.4,349
				c0,45.3-27.8,45.8,139.2-28.1c166.7,73.8,139.1,73.3,139.1,28.1C226.6,271.7,292.1,274.7,123.4,349z M150.3,388.6
				c0,36.5-22.2,36.7,112.3-22.7c134.6,59.6,112.2,59,112.2,22.7C239.2,328.8,291.7,326.3,150.3,388.6z"/>
		</g>
		<g class="st0">
			<g class="st2">
				<g>
					<text transform="matrix(4.5872 0 0 1 750.4727 711.917)" class="st7" style="font-size:7.6955px;">lorem ipsum</text>
				</g>
			</g>
			<g class="st2">
				<g>
					<text transform="matrix(4.5872 0 0 1 774.3877 716.6836)" class="st7" style="font-size:4.3375px; letter-spacing:0.7;">slogan here</text>
				</g>
			</g>
		</g>
	</g>
	<g class="st0">
		<g class="st2">
			<path class="st12" d="M810.8,613.6c0,9.4,0,57.4,0,66.9c0,2.9-9.7,2,87.2,2c0-24,0-43.7,0-68.9l-43.6-19.3L810.8,613.6z
				 M810.8,594.9c0,14.2-8.7,14.4,43.6-8.8c52.3,23.2,43.6,23,43.6,8.8l-43.6-19.3L810.8,594.9z M799.8,576.9
				c0,17.9-11,18.1,55.2-11.1c66.3,29.3,55.2,29,55.2,11.1L855,552.6L799.8,576.9z M810.8,685.7c49.7,70.5,37.4,70.7,87.2,0
				C897.6,685.7,805.5,685.7,810.8,685.7z M854.4,747.5l5.2-7.4C847.7,741.9,846.3,736,854.4,747.5z M817.7,615.8
				c0,11.9-7.3,12.1,36.7-7.4c44,19.4,36.6,19.3,36.6,7.4C846.8,596.2,863.9,595.4,817.7,615.8z M823.4,627c0,10.1-6.2,10.2,31-6.2
				c37.1,16.4,30.9,16.3,30.9,6.2C846.4,609.7,861,610.4,823.4,627z M829.4,635.8c0,8.1-4.9,8.2,25-5c29.9,13.2,25,13.1,25,5
				C849.2,622.4,860.9,621.9,829.4,635.8z"/>
		</g>
		<g class="st2">
			<g>
				<text transform="matrix(4.5872 0 0 1 750.4727 813.5186)" class="st7" style="fill:#FDF7EA; font-size:7.6955px;">lorem ipsum</text>
			</g>
			<g>
				
					<text transform="matrix(4.5872 0 0 1 774.3877 818.2871)" class="st7" style="fill:#FDF7EA; font-size:4.3375px; letter-spacing:0.7;">slogan here</text>
			</g>
		</g>
	</g>
</g>
</svg>
