<svg id="Graphic_Elements" data-name="Graphic Elements" xmlns="http://www.w3.org/2000/svg" viewBox="0 0 346.5 214.57"><defs><style>.cls-1,.cls-2{fill:#fff;}.cls-2{font-size:45px;font-family:PublicSans-Medium, Public Sans;font-weight:500;}.cls-3{letter-spacing:-0.02em;}.cls-4{letter-spacing:-0.04em;}.cls-5{letter-spacing:-0.02em;}.cls-6{letter-spacing:0em;}.cls-7{letter-spacing:-0.01em;}</style></defs><g id="Graphic_Elements-2" data-name="Graphic Elements"><path class="cls-1" d="M1063.18,302.27c-.25.06-.26.05-.32.18a1,1,0,0,1-.54.49,3.6,3.6,0,0,0-.8.59c-.15.15-.39.2-.44.44l-.07,0c-.43-.06-.74.21-1.1.36,0,0,0,0-.08,0l.22-.28c-.07,0-.14-.05-.17,0a.67.67,0,0,0-.23.21c-.13.24-.42.28-.55.51a.48.48,0,0,1-.24.17c-.25.11-.54.1-.77.29-.07.05-.21,0-.33,0s-.18,0-.21,0c-.15.18-.3.12-.49,0l0,.19-.29.08-.11-.26-.39.39-.25-.21c-.08.14-.21.16-.33.2s-.18-.18-.35-.15l0,.34-.06,0-.18-.22c-.27,0-.55.09-.63.48-.12-.06-.22-.16-.33-.16a.77.77,0,0,0-.42.1,2.25,2.25,0,0,0-.37.34s-.09-.06-.15-.08-.21-.08-.28,0a1.42,1.42,0,0,1-.61.13,4.11,4.11,0,0,0-.45.13l-.2-.17-.11.21a4.18,4.18,0,0,1-.54.1c-.2,0-.41,0-.61,0a.55.55,0,0,0-.55.23c-.16-.15-.34-.08-.52,0s-.3.1-.4.06-.45,0-.67,0-.5.08-.75.1c-.52,0-1,.09-1.58.12l-2.69.14-.9.05a8.32,8.32,0,0,1-1.32,0,5.21,5.21,0,0,0-.67.06c-.15,0-.32.08-.47-.06s-.09,0-.14,0a1.84,1.84,0,0,1-.51.1c-.64,0-1.28-.08-1.92-.13.15-.09.14-.23.14-.38-.11.11-.26.2-.13.39l-.4-.07s-.09,0-.1,0c-.17.17-.36,0-.54,0s-.19-.07-.22-.18c.14,0,.28.09.38-.13-.17,0-.32-.09-.37.14-.26.08-.26.08-.47-.29,0,.1,0,.16,0,.21s0,.12,0,.21l-.82-.11c.1-.22-.22-.3-.13-.54-.21.07-.33.19-.3.41v0h-.63l-.22,0c-.15,0-.3.06-.45-.11s-.3,0-.48,0l-.09-.18a1,1,0,0,1-.27.07c-.18,0-.35-.08-.52-.11s-.27,0-.39-.06-.28-.14-.46-.22a.21.21,0,0,1-.32,0,.34.34,0,0,0-.15,0,3.51,3.51,0,0,1-1.39-.34.51.51,0,0,0-.2,0c-.12,0-.22,0-.3-.08a.1.1,0,0,0-.11,0c-.23.08-.36,0-.43-.23-.12,0-.24.1-.31.06-.32-.18-.75-.11-1-.43l.16-.22-.62-.3-.06.07c0,.05.09.14.14.15a.4.4,0,0,1,.39.3c-.28.15-.52,0-.76-.12l-.53-.23c-.05-.16-.11-.37-.18-.58-.29.1,0,.29-.11.44l-.83-.24c.11-.17.22-.3.07-.44s-.23-.06-.38,0l.29.21c-.14.1-.21.16-.37.06a3.09,3.09,0,0,0-.67-.22,4.25,4.25,0,0,1-.49-.21c-.32-.17-.72-.14-1-.44,0,0-.07,0-.11,0a2.23,2.23,0,0,1-1.2-.51c-.09-.07-.25-.05-.36-.11-.43-.23-.86-.48-1.3-.7s-.64-.27-1-.4c-.06,0-.15,0-.18,0-.29-.36-.83-.36-1.1-.75,0,0,0,0-.06,0a2,2,0,0,1-.35-.21,1.37,1.37,0,0,1-.2-.29c-.08,0-.14.1-.19.09a.67.67,0,0,1-.32-.46.6.6,0,0,1-.67-.23,4.55,4.55,0,0,0-1.06-.73s-.1,0-.1,0c-.06-.33-.39-.39-.61-.51s-.39-.38-.69-.46a3,3,0,0,1-.53-.32,1.08,1.08,0,0,0-.35-.39c-.3-.23-.6-.44-.89-.67s-.27-.38-.5-.5a8.87,8.87,0,0,1-.71-.54,4.5,4.5,0,0,1-.7-.61,5.47,5.47,0,0,0-.68-.58l-.15-.16-.19-.21s-.14-.09-.13-.11c.08-.26-.27-.22-.28-.41-.45-.25-.7-.72-1.08-1.05a1.27,1.27,0,0,1-.42-.5s0-.11,0-.12-.33-.18-.39-.31a2,2,0,0,0-.47-.6,6.05,6.05,0,0,1-.69-.91c-.14-.17-.32-.31-.48-.48a.91.91,0,0,1-.13-.19c-.22-.35-.43-.71-.65-1.07a.25.25,0,0,0,0-.07,6.3,6.3,0,0,1-1.06-1.4c-.19-.29-.49-.54-.51-.94a.13.13,0,0,0-.06-.09.88.88,0,0,1-.38-.55,4.38,4.38,0,0,0-.35-.57c-.15-.26-.23-.56-.39-.81a12.78,12.78,0,0,1-.58-1.25,13,13,0,0,1-.74-1.61,2.09,2.09,0,0,0-.16-.29,2.53,2.53,0,0,1-.12-.23c-.08-.24-.13-.49-.23-.73s-.21-.35-.3-.53a4.43,4.43,0,0,1-.18-.59c0-.19-.19-.33-.22-.52a4.82,4.82,0,0,1-.06-.65l-.1.27h-.08l0-.46a2.12,2.12,0,0,1-.6-1,1.48,1.48,0,0,1,0-.29s-.16,0-.17-.12a9.84,9.84,0,0,1-.52-1.7,3.06,3.06,0,0,0-.17-.48c0-.18,0-.37-.09-.55a.35.35,0,0,0-.06-.17.41.41,0,0,1-.07-.38c0-.15-.07-.32-.11-.49s-.05-.29-.07-.43,0-.13,0-.15c-.23-.2-.2-.48-.24-.74s0-.34,0-.51c-.06-.43-.14-.86-.17-1.29s0-1,0-1.45a12.32,12.32,0,0,1-.07-1.48,6.66,6.66,0,0,1,0-1.73,11,11,0,0,1,.16-1.42c0-.11,0-.23,0-.34s.05-.35.08-.52a3.85,3.85,0,0,0,.08-.49c0-.43,0-.88.06-1.31,0-.12,0-.32.2-.38,0,0,0-.08.11-.19l-.23.12a3.28,3.28,0,0,1,.29-1.52,1,1,0,0,1,0-.87s0-.07,0-.1c-.08-.57.26-1,.34-1.58a4.52,4.52,0,0,1,.54-1.16c0-.08.08-.15.11-.23a1.17,1.17,0,0,1,.11-.28,6.47,6.47,0,0,0,1-2.39c.07-.23.06-.23.26-.34a1.45,1.45,0,0,1,0-.37,8.24,8.24,0,0,1,.6-1.5c.22-.36.31-.75.5-1.11s.28-.57.43-.85a1.31,1.31,0,0,1,.23-.25c-.2-.19.09-.33.12-.52a.41.41,0,0,1,.49-.35l-.16-.25c.09-.19.17-.37.27-.55a1.93,1.93,0,0,1,.22-.28s.11-.08.12-.14a1.68,1.68,0,0,1,.46-.69.82.82,0,0,0,.26-.54.72.72,0,0,1,.31-.53c.2-.1.17-.3.31-.41s.07-.28.26-.29a.1.1,0,0,0,0-.08c-.09-.23.12-.34.19-.49s.25-.24.36-.37.2-.29.32-.45c-.07-.17,0-.31.11-.49.25-.44.62-.78.86-1.22.05-.12.17-.19.24-.3.19-.29.36-.58.54-.87,0,0,0-.06,0-.06.31-.11.41-.4.56-.64s.34-.49.51-.73c0,0,.05-.08.08-.08.29,0,.32-.26.37-.44s.24-.19.33-.31a2.4,2.4,0,0,1,.43-.41c.16-.1.24-.33.36-.5s.13-.24.31-.23.08,0,.09-.05c.1-.39.44-.57.67-.85a7.84,7.84,0,0,1,.54-.61c.29-.3.6-.59.91-.87a.53.53,0,0,0,.18-.26c0-.19.11-.42.4-.41,0,0,.08-.07.12-.12.22-.26.46-.51.7-.75s.52-.4.76-.64c.39-.41.8-.82,1.21-1.22a5.81,5.81,0,0,0,.7-.6,3.49,3.49,0,0,1,.61-.66c.22-.19.52-.3.65-.6.22.06.19-.17.29-.25s.33-.21.48-.33.62-.33.76-.68c.33-.11.46-.56.88-.51a1.42,1.42,0,0,1,.8-.76c.14,0,.21-.24.38-.32a3.49,3.49,0,0,0,.56-.47.47.47,0,0,1,.19-.12c.13,0,.27,0,.31-.22,0,0,0,0,0,0s.3-.11.34-.21.23-.19.36-.25a.91.91,0,0,0,.48-.38l.08-.08a8.11,8.11,0,0,0,1.44-.87,1.11,1.11,0,0,1,.54-.22c.15,0,.18-.07.25-.16a.85.85,0,0,1,.53-.33,1.88,1.88,0,0,0,.48-.22c.84-.41,1.67-.84,2.51-1.23.62-.28,1.27-.47,1.87-.77s1.41-.46,2.09-.76c.25-.11.52-.2.79-.29l1.5-.43c.25-.08.49-.2.74-.28l1.69-.52c.4-.13.78-.28,1.18-.42l1.07-.35a9,9,0,0,1,1.2-.34c.7-.11,1.36-.35,2-.52.39-.1.77-.27,1.15-.38a6.38,6.38,0,0,1,1.68-.3c.53,0,1.06-.12,1.59-.17a1.35,1.35,0,0,1,.33,0,1.44,1.44,0,0,1,.41-.21,1.52,1.52,0,0,1,.46,0,1,1,0,0,1,1-.17c.11-.06.2-.15.3-.16.32,0,.64-.09,1-.11a.32.32,0,0,1,.34.29c0,.05,0,.1.06.21a.74.74,0,0,0,.09-.55,1.57,1.57,0,0,1,2.11,1.2c0,.09,0,.22.06.29a1.32,1.32,0,0,1,.14.8,2.17,2.17,0,0,0,0,.25.5.5,0,0,1,0,.22c-.24,0-.16.23-.23.36s0,.12-.06.13a1.51,1.51,0,0,0-.62.5c0,.05-.11.08-.12.13a.76.76,0,0,1-.36.41,2.2,2.2,0,0,0-.23.2,2,2,0,0,1-.28.17c0,.2-.16.31-.3.47s-.36.24-.31.52c0,0-.08.14-.14.15s-.22.17-.3.29a5.86,5.86,0,0,1-.54.67c-.3.33-.62.65-.93,1l-.2.17s-.12.05-.16.1c-.33.34-.65.69-1,1.05s-.48.55-.71.83c-.36.43-.69.89-1.06,1.31a14.3,14.3,0,0,1-1.16,1.31,4.81,4.81,0,0,0-.49.67c-.1.13-.24.24-.35.38s-.26.4-.4.59c-.31.41-.63.81-.94,1.23-.17.23-.32.47-.49.7s-.38.5-.56.76c-.34.49-.75.93-1,1.44s-.52.82-.77,1.22c-.39.63-.8,1.23-1.22,1.84a4.37,4.37,0,0,1-.47.53c.1.21,0,.42-.19.62a9.65,9.65,0,0,0-1.31,2,8,8,0,0,0-.87,1.35,3.36,3.36,0,0,0-.42.9,1.67,1.67,0,0,1-.45.73.53.53,0,0,0-.21.46v0a4.86,4.86,0,0,1-.69,1.17l.14.15-.27.66a5.92,5.92,0,0,1-.45,1,6.34,6.34,0,0,0-.56,1.48c-.1.22-.19.45-.28.67a.48.48,0,0,0,0,.14c.07.33-.17.58-.25.87s-.11.37-.18.54a2.7,2.7,0,0,0-.24.56,8.35,8.35,0,0,1-.17,1,4,4,0,0,1-.3.81c-.06.14-.17.26-.06.42s0,.09,0,.14,0,.37-.07.55,0,.06,0,.08a11.26,11.26,0,0,0-.35,1.63,5.86,5.86,0,0,0-.12.63l-.31,0c0,.08,0,.19.09.22.22.13.12.31.08.47s0,.24-.07.36,0,.21-.1.39a.57.57,0,0,1,0,.59.41.41,0,0,0,0,.22c0,.19,0,.19-.2.35l-.16-.27c0,.35,0,.36.35.42a.55.55,0,0,1,0,.17c-.05.13-.19.25,0,.39,0,0,0,.16,0,.24a1.27,1.27,0,0,0,.11.27.6.6,0,0,0,0,.56.64.64,0,0,1,0,.3s-.05.11,0,.14c.21.35,0,.76.18,1.14.07.15-.09.39,0,.59a.59.59,0,0,1,0,.25c0,.1-.12.19-.12.28,0,.24,0,.47,0,.71s.16.36,0,.53l0,0c.24.44-.14.91.09,1.36.06.11,0,.29,0,.44a12,12,0,0,1,.1,1.69c0,.26,0,.54,0,.78s.17.6.05.94l-.23.09,0,.08h.1c.11,0,.24-.05.25.15l-.4.1.13.4.36-.2a1.92,1.92,0,0,0-.08.51,1.45,1.45,0,0,0,.19.46l-.33.11s.08.07.1.07a2.8,2.8,0,0,0,.29,0,1.08,1.08,0,0,0,.09,1.1.25.25,0,0,1,0,.14,4.51,4.51,0,0,0,.15,1.27s0,.08,0,.11a4.14,4.14,0,0,0,.36,1.59s0,.08,0,.1c-.14.27.1.5,0,.77s.06.28.08.42a1.18,1.18,0,0,1,0,.26l.28.2c.07.35.14.68.2,1,0,.15.23.23.17.4s.11.34.18.51.08.35.15.5a6.5,6.5,0,0,1,.37,1.21c.09.39.31.73.38,1.11s.3.49.4.77a13.23,13.23,0,0,0,.56,1.29,3.49,3.49,0,0,0,.4.67c.08.11-.07.32.2.34.09,0,.16.24.24.36s.17.25.25.37.05,0,.06.06c.16.53.62.86.9,1.31s.68.8.68,1.36h0l-.19.44a3.38,3.38,0,0,0,.39,0,.37.37,0,0,1,.45.16c.32.4.68.77,1,1.18a9.13,9.13,0,0,1,.95,1.11s.06.05.08.08l1.21,1c.27.23.51.49.78.7s.65.55,1,.84a4.21,4.21,0,0,0,.52.4,2.06,2.06,0,0,1,.25.26.56.56,0,0,0,.27.23c.2.08.44.16.53.43,0,.07.23.08.38.13-.08.47.42.27.61.47l-.09.14.08.05a1.25,1.25,0,0,1,.55.22c.1.09.17.32.39.18,0,0,.11.14.19.18l.87.48.2-.13c.28.1.58.18.52.58.12.07.18-.21.31,0s.2-.15.33,0a1.38,1.38,0,0,0,.29.17l.31.22c.07,0,.15-.07.27.07a3.52,3.52,0,0,0,.73.47l.32-.12.87.45a.33.33,0,0,0,.22,0c.19-.05.37-.07.5.14,0,0,.15,0,.23.05v.21c.13,0,.26,0,.39,0a.47.47,0,0,1,.41.15,1,1,0,0,0,.88.26.84.84,0,0,1,.56,0l-.23.18v.08h.75l.18.27.43-.11a.86.86,0,0,1,.23-.05,3,3,0,0,0,1,.05,1.94,1.94,0,0,1,.82.06l-.32.1c.12.06.18.12.24.12h.82c.16,0,.31.09.47,0s.11,0,.22.05l-.22.2s.1.06.11.05l.37-.29c.25.3.61.21.92.12a1.46,1.46,0,0,1,.75,0c.08,0,.16.06.22,0a1.68,1.68,0,0,1,.86.1,3.34,3.34,0,0,0,.74.18c.2,0,.4.18.62.22a5.11,5.11,0,0,1,1.18.56,1,1,0,0,1,.5.63c.09.28.3.52.26.83,0,.15,0,.29-.06.48l-.47.12a.76.76,0,0,1-.52.48l.07.28Zm-35.85,2.78.35.06.21.14a2,2,0,0,1,0-.33,1.32,1.32,0,0,1,.16-.25c-.12-.15-.19-.05-.24.06s-.12.26-.17.39c-.1-.17-.24-.07-.36-.06l0-.29a.38.38,0,0,0-.14.23Zm1.51-35.44h.1l-.09-.57C1028.62,269.22,1028.62,269.22,1028.84,269.61Zm-.46-1.46v.08h.46l-.11-.34Zm-3.55,35.45c-.22-.24-.25-.23-.4.1Zm9,2.76.25.38c0-.12.1-.22.07-.26S1034,306.25,1033.81,306.36Zm-5-39-.51.23C1028.59,267.69,1028.63,267.67,1028.76,267.35Zm-.43-.64c.14-.06.31-.09.35-.3C1028.44,266.39,1028.41,266.58,1028.33,266.71Zm-1.08,37.51a1.24,1.24,0,0,0-.24.07s-.08.1-.12.15a.45.45,0,0,0,.22,0C1027.16,304.45,1027.18,304.35,1027.25,304.22Zm1.14-49,.2-.32,0,0-.37.27Zm4.31,26.42v-.26l-.21,0,0,.11Zm-.85-.15c.09.14.18.18.3,0Zm-7,22.79,0-.09-.18-.06,0,.14Zm3.46-47.51-.16-.31C1028.1,256.59,1028.1,256.67,1028.35,256.73Zm-10.6-28.39,0,.08.26-.11,0-.08Zm10.47,40.42c.27.05.27.05.25-.16Zm-24.07,20,.21-.22C1004.07,288.55,1004.07,288.55,1004.15,288.76Zm-.54-.92,0,.06.16-.06,0-.06Zm24.54-25.32c.17,0,.17,0,.15-.21Zm7,44.15.1,0s0,0,0,0l-.09,0Zm-36.91-29.22.07-.15a.28.28,0,0,0-.13,0s-.06.06-.05.07A.38.38,0,0,0,998.27,277.45Zm36,28.68c.14.18.22.16.3.05Zm-1.92-25,0-.07-.12,0s0,.06,0,.06Zm-1,25,.05-.08-.14-.08,0,.06Zm-23-12.6.07-.05-.1-.12,0,0Zm20-38.93.05,0,.1-.11-.07-.05Zm-17.52,41.71,0-.08-.16-.05,0,.06Zm17.47,8.92a.53.53,0,0,0-.08.14s.06.07.07.07.09-.05.1-.08S1028.33,305.32,1028.29,305.26Zm-1.68-1.06h-.1l0,.2h.06Zm2.28-48.33-.07-.07-.12.14,0,0Zm.68-7c0,.06,0,.09,0,.12s.06,0,.08,0,.05,0,.05-.07S1029.63,249,1029.57,248.9Zm-19.74-11.42,0,.08.17-.07,0-.05Zm18.5,27.71s0,.06,0,.06l.09,0s0-.06,0-.06Zm-18.56,30.34,0-.07-.17,0,0,0Zm3.58,2.6c0,.05-.05.08,0,.11s.05,0,.08.05.05-.06,0-.09S1013.39,298.16,1013.35,298.13Zm7.22.71s0,.06,0,.06l.08,0s0-.06,0-.06Zm25.78-3.65.05.05s.06,0,.09-.06l-.06-.06Zm-21,8.74,0,.05.12-.09-.06-.07Zm.58.47-.08,0-.06.17.06,0Zm30.2-6.3s0,.06,0,.09.06,0,.07,0a.36.36,0,0,0,0-.09Zm1,.23,0,.08.17-.06v-.06Zm-25.21,7.23v.06l.19,0v-.05Zm.35.8.06-.08,0,0-.09.09Zm4.59.5,0,.06.16.05,0-.07Zm25.51-4.19s0,.07.05.07l.09-.05s0-.05,0-.05A.29.29,0,0,0,1062.36,302.67Z" transform="translate(-717.97 -200.95)"/><path class="cls-1" d="M1063.18,302.27c.16.14.11.24-.08.34,0-.13.05-.24.08-.34Z" transform="translate(-717.97 -200.95)"/><path class="cls-1" d="M1036,286.34l.33,0c-.18.19-.26.15-.32,0Z" transform="translate(-717.97 -200.95)"/><path class="cls-1" d="M1052.85,297.37l-.18.05v-.07l.18,0Z" transform="translate(-717.97 -200.95)"/><path class="cls-1" d="M1034.4,306.86v0l.15-.05,0,.09Z" transform="translate(-717.97 -200.95)"/></g><path class="cls-1" d="M952.74,223a1.31,1.31,0,0,1-.28.24c-.06,0-.08.14-.13.22l-.11-.05,0,.15c-.15,0-.16.2-.24.29s-.39.4-.56.62a1.27,1.27,0,0,1-.24.28,1.07,1.07,0,0,0-.25.27c-.05.08-.08.17-.13.27l.29.06c.79.1,1.57.22,2.35.31.62.08,1.25.15,1.87.2l2,.12,1.5.08c.48,0,1,0,1.44.07s.73.07,1.09.12.78.13,1.17.17c.7.09,1.4.16,2.11.23.31,0,.63,0,.94.05l1.46.08.4.06a1.51,1.51,0,0,1-.24.13c-.35.07-.7.15-1.06.2l-1.55.18c-.23,0-.46.1-.69.13l-1.43.16-1.21.11c-.51.06-1,.14-1.53.19-.34,0-.69,0-1,0l-.82.07a2.6,2.6,0,0,1-.68,0,3.07,3.07,0,0,0-.53.06.77.77,0,0,1-.37-.08.28.28,0,0,1-.38.07,1.11,1.11,0,0,0-.57-.07.11.11,0,0,0-.08,0,.39.39,0,0,1-.4,0,.47.47,0,0,0-.4,0,.85.85,0,0,1-.5,0,.93.93,0,0,0-.34,0,.21.21,0,0,1-.19,0c-.13-.07-.15-.06-.25.09l0-.15c-.17.11-.41,0-.56.23l.32.35a1.71,1.71,0,0,1,.2.27c.09.17.16.36.26.52l1.59,2.38c.38.56.77,1.11,1.17,1.66s1,1.34,1.47,2,1,1.23,1.52,1.85c.27.32.53.66.79,1,0,0,.12.12.05.18a.21.21,0,0,1-.19,0c-.07,0-.12-.06-.19,0s-.09,0-.13-.07l-1.06-1-1.46-1.34c-.27-.25-.52-.52-.79-.79l-.73-.75-.69-.71-.54-.51c-.45-.43-.9-.86-1.34-1.31a3.77,3.77,0,0,1-.5-.67c-.06-.08-.15-.11-.2-.19s-.34-.33-.5-.5-.28-.36-.42-.53A1.37,1.37,0,0,0,951,230a.27.27,0,0,0-.35,0c-.1.08-.12.15,0,.28a.24.24,0,0,1-.06.35h.12a.53.53,0,0,1,0,.13c0,.13-.09.25,0,.37s0,.1,0,.14a2.28,2.28,0,0,0,0,.69,1.19,1.19,0,0,1,0,.33c-.08,0-.08.09-.07.18h.09a.41.41,0,0,1,0,.11c0,.07-.06.11,0,.18s0,.13,0,.2,0,.34,0,.51,0,.21,0,.31,0,.36,0,.54,0,.14-.11.08,0,.09,0,.11.09.31.08.48a.25.25,0,0,0,0,.12.53.53,0,0,1,0,.12c0,.28,0,.56,0,.84a1.44,1.44,0,0,1-.09.24,1.66,1.66,0,0,1,0,.32c0,.14-.06.26-.07.4s0,.28,0,.42a1.4,1.4,0,0,1,0,.29c0,.29-.06.58-.07.86q0,.72-.06,1.44c0,.56,0,1.13-.06,1.69,0,.32-.06.63-.07,1s0,.43,0,.65c-.05.61-.14,1.21-.17,1.81s0,1.06,0,1.58S950,248,950,248.61c0,.42,0,.85-.05,1.27,0,.61-.1,1.21-.15,1.82s-.11,1.15-.16,1.72-.1,1.23-.15,1.84a1.43,1.43,0,0,1-.1.25l-.16-.15-.07,0c-.1.12-.15.13-.21,0a1.15,1.15,0,0,1-.11-.36c-.2-1.18-.36-2.36-.45-3.55,0-.73-.08-1.46-.12-2.19,0-.45,0-.89-.07-1.33,0-.09,0-.16.14-.2l-.18-.07c0-.5,0-1-.07-1.52a.91.91,0,0,1,0-.4c0-.1,0-.25,0-.38a5.48,5.48,0,0,1,0-1.07,2.16,2.16,0,0,0,0-.35,6.41,6.41,0,0,1,0-1.07c0-.07,0-.14,0-.22,0-.45,0-.9,0-1.34s-.06-.65-.08-1-.06-.93-.08-1.39c0-.26,0-.52,0-.77a2.13,2.13,0,0,1,.11-.87s0-.07,0-.08,0-.16-.07-.23a.93.93,0,0,1,0-.24c.06,0,.16.05.14-.08s-.1-.06-.13-.11a.09.09,0,0,1,0-.14.45.45,0,0,1,0-.08c0-.07,0-.14,0-.19a.22.22,0,0,0,0-.21s0-.05,0-.07l0-.07c-.1-.15,0-.31,0-.46a4.93,4.93,0,0,1,0-.77v-.06c0-.21,0-.21.11-.33l-.11,0c0-.21,0-.4,0-.6s0-.26,0-.39c0-.35,0-.69,0-1a.49.49,0,0,1,0-.12,3,3,0,0,0,0-.67,8.34,8.34,0,0,1,0-1c0-.2,0-.41,0-.61s0-.39,0-.59a.61.61,0,0,0,0-.14.48.48,0,0,0,0-.2c-.08.08-.22.08-.22.23s0,0-.06,0-.31.29-.46.45-.28.3-.43.46-.21.29-.36.37-.27.25-.42.36-.29.23-.44.36c-.38.32-.77.63-1.15,1s-.6.55-.93.8c-.55.42-1.08.88-1.61,1.33-.31.27-.6.56-.91.82l-.73.58c-.33.28-.65.57-1,.84a15.1,15.1,0,0,1-1.54,1.12l-.58.41c0-.06,0-.09,0-.11a20.71,20.71,0,0,1,1.23-1.82c.33-.44.63-.9,1-1.33s.67-.9,1-1.36l.47-.7a6.42,6.42,0,0,1,.38-.53c.23-.3.46-.59.7-.88l.11-.09c0,.07,0,.14.13.06s0-.12-.13-.05a4.76,4.76,0,0,1,.78-1l.57-.59a.66.66,0,0,1,.15-.14.62.62,0,0,0,.31-.43.36.36,0,0,1,.19-.21c.13-.05.17-.18.27-.26s.12-.11.11-.16a.4.4,0,0,1,.1-.23c-.18,0-.35-.07-.53,0l-.06-.11c0,.09-.09.13-.16.06a.18.18,0,0,0-.23,0c-.06,0-.15,0-.23,0-.56-.07-1.12-.11-1.68-.14-.71,0-1.42-.1-2.13-.17-.43,0-.86-.12-1.29-.17l-2.36-.23-1.37-.11c-.8-.08-1.6-.17-2.4-.23-.47,0-.93,0-1.4-.07l-.5-.06a.28.28,0,0,1,.23-.23l1.24-.2c.67-.1,1.34-.18,2-.27l2.24-.32c.45-.06.9-.08,1.35-.12l1.6-.14h.65c.29,0,.58,0,.86,0s.44,0,.67,0a8.37,8.37,0,0,0,1-.05l1.67-.08,1,0a.27.27,0,0,0,.13,0,2.54,2.54,0,0,1,.78,0l.94,0h.27c.13,0,.16-.05.1-.17a.31.31,0,0,0-.08-.11.25.25,0,0,1-.14-.2c0-.06-.13-.08-.13-.19s-.08-.14-.15-.18-.08-.13-.12-.2a4.19,4.19,0,0,0-.26-.33.87.87,0,0,1-.15-.2.16.16,0,0,0-.12-.12s0-.15-.13-.09l-.06,0-.39-.6-.07-.07a1.47,1.47,0,0,1-.1-.13s0,0,0,0c-.18-.07-.19-.29-.33-.41a.32.32,0,0,1-.12-.17c-.06-.22-.29-.29-.38-.47l-.09-.16a.34.34,0,0,0-.09-.12c0-.06-.14-.1-.17-.17a4.45,4.45,0,0,1-.26-.48c0-.08-.1-.15-.14-.24s-.14-.23-.2-.35,0-.1,0-.16l-.13,0c-.11-.17-.23-.35-.34-.54,0,0,0-.09,0-.15s-.08,0-.11-.05a.38.38,0,0,1,0-.16c0-.07,0-.16-.08-.17s-.19-.2-.24-.31-.09-.09-.15-.13l.12-.18-.18,0c-.18-.26-.37-.51-.54-.78s-.24-.27-.21-.46c0,0,0-.05,0-.05-.19-.08-.22-.27-.31-.42-.35-.58-.68-1.18-1-1.77-.1-.17-.2-.35,0-.52a1.09,1.09,0,0,1,.32.1,1.93,1.93,0,0,1,.36.28l1,1.07c.13.14.25.29.38.42.31.3.63.59.93.89.48.48.94,1,1.42,1.46.27.28.57.54.85.82l.87.92c.21.22.42.45.64.67s.25.27.38.39a5.26,5.26,0,0,0,.78.71.31.31,0,0,1,.13.17c0,.1.1.14.19.2a1.48,1.48,0,0,0,.13-.55,2.32,2.32,0,0,1,.06-.44h0c0-.09-.11-.15,0-.26a.45.45,0,0,0,0-.23,2.32,2.32,0,0,1,0-.83c0-.08.12-.16,0-.24s0,0,0-.06.06-.31,0-.48a2.12,2.12,0,0,1,0-.5l0-.5c0-.21.06-.42.09-.63a.49.49,0,0,0,0-.12s0-.06,0-.07,0-.3,0-.45c0-.3.07-.59.08-.89s0-.59,0-.88,0-.29,0-.43c0-.38,0-.76.05-1.13l0-.59c0-.15,0-.3,0-.45a.53.53,0,0,1,0-.12c0-.28.08-.55.09-.82s0-.66,0-1a.45.45,0,0,1,0-.11.54.54,0,0,0,0-.1,3,3,0,0,1,0-.52c.06-.8.13-1.6.19-2.4s.09-1.33.15-2,.12-1.12.19-1.68.17-1.33.27-2a8,8,0,0,1,.18-.85.69.69,0,0,1,0-.13l.39.08c.06.36.11.72.17,1.08.09.59.2,1.18.28,1.77,0,.4.07.79.11,1.19,0,.67.1,1.35.16,2,.08.94.17,1.87.24,2.81s.13,2.14.19,3.21a2.81,2.81,0,0,1,0,.71,4.53,4.53,0,0,1,0,.52.83.83,0,0,0,0,.15.14.14,0,0,0,0,.09s0,0,0,0,0,.27.07.4-.21.15,0,.24c0,.14,0,.28-.15.38l.13.11a.27.27,0,0,0-.12.37s0,0,0,0,0,.24,0,.35a.32.32,0,0,0,0,.17c0,.1.08.21,0,.3s0,.08,0,.13l.2,0-.12.15c0,.09,0,.19,0,.28v.29l-.1.16c.07.06.15.1.09.21a.28.28,0,0,0,0,.18.54.54,0,0,1-.07.41l.12.16h-.17c.05.16.11.32,0,.47a.42.42,0,0,1-.1.45l.11.08a1.84,1.84,0,0,0,0,.47s-.06.1-.11.17l.1.22h.23c0-.2,0-.21.2-.24a.27.27,0,0,0,.15-.05,2.28,2.28,0,0,0,.63-.52,2.83,2.83,0,0,1,.3-.3c.18-.14.33-.31.52-.43a3.72,3.72,0,0,0,.47-.42l1.06-.91c.37-.3.77-.59,1.15-.89l.91-.72,2.06-1.74a.75.75,0,0,1,.2-.15.17.17,0,0,1,.17,0,.1.1,0,0,1,0,.16c-.15.23-.29.47-.45.7-.37.55-.74,1.11-1.13,1.65s-.67.87-1,1.3-.59.73-.88,1.11l-1.42,1.95-.65.87s0,0-.08,0-.13.06-.12.16-.1.19-.25.21c-.07.18-.09.38-.34.41,0,0,0,.06,0,.09l-.14,0v0Zm-9.19-2.7c.11-.08.11-.08,0-.15h0c-.09.06-.08-.06-.15-.09l-.17.25.35.17s.07,0,.1,0l0,.17c.06-.11,0-.15,0-.17s-.14-.06-.13-.16Zm.87,1.24.11-.13C944.4,221.4,944.38,221.46,944.42,221.58ZM943,219.71c0,.1,0,.14.09.13Zm-.41-.69,0-.17C942.41,218.93,942.46,219,942.55,219Zm6,28.24,0,0,.07-.08,0,0ZM948.36,233h0s0-.09,0-.13h0Zm-3.64-11.06h0l0-.08h0Zm-1.39-2.3v0l.1,0v-.06Zm-.21-.06,0,0,.08-.09,0,0Zm5,2.75s0,.06,0,.07h.06Zm-3.8-1,0,0-.09-.08,0,0Zm4.63-5.59h0l0,.08h0Z" transform="translate(-717.97 -200.95)"/><path class="cls-1" d="M980.33,244.05c-.77.09-1.49.16-2.21.26-.53.07-1.06.18-1.59.26s-.84.1-1.26.17a4.89,4.89,0,0,0-.74.16.47.47,0,0,0-.37.48,8.88,8.88,0,0,1-.23,1.27c-.08.51-.16,1-.25,1.53s-.21,1.15-.3,1.73-.19,1.23-.26,1.85-.08,1.09-.1,1.64c0,.28,0,.56,0,.84a.11.11,0,0,1,0,.09,1,1,0,0,1-.07-.25l-.21-1.59c0-.08,0-.15,0-.23l-.21-1.2c-.09-.5-.19-1-.26-1.48,0-.17-.11-.34,0-.52v0a5,5,0,0,1-.23-1.43c0-.29-.13-.56-.17-.85s-.06-.45-.08-.67c0,0,0-.09,0-.12s-.07-.07-.07-.1,0-.3-.05-.45a.29.29,0,0,0-.32-.15.84.84,0,0,1-.5,0c-.82-.21-1.64-.44-2.45-.67s-1.43-.42-2.14-.63l-.09,0c0-.08,0-.1.09-.11l.77-.13c.52-.08,1-.19,1.57-.23s1-.21,1.51-.27a3,3,0,0,0,.67-.11,1.34,1.34,0,0,0,.62-.28,1.1,1.1,0,0,1,.25-.17.79.79,0,0,0,.45-.67c.08-.74.17-1.48.26-2.22.06-.46.13-.91.21-1.37,0-.19,0-.37.06-.56.06-.62.14-1.23.21-1.85,0-.39.08-.78.15-1.17.1-.54.12-1.09.18-1.63,0-.11,0-.23.09-.31s.11.1.12.17l.12,1.09c.06.5.11,1,.17,1.51s.11,1.18.17,1.77l.06.84c0,.47,0,.93.09,1.4s.09.78.14,1.18.08.61.1.91a2.56,2.56,0,0,1,0,.39.53.53,0,0,0,.47.63c.42.11.85.21,1.27.33l2.12.58a8.8,8.8,0,0,0,2,.32.93.93,0,0,1,.23,0S980.29,244,980.33,244.05Zm-8,1.49-.16-.06,0,0,.07.11Zm-.16,1.94c-.09.11,0,.15,0,.2h0Zm0-.34c.08,0,.08,0,.06-.1Z" transform="translate(-717.97 -200.95)"/><path class="cls-1" d="M943.55,220.34h-.12l.12-.17h0v.15Z" transform="translate(-717.97 -200.95)"/><path class="cls-1" d="M1053.68,324.3v88H721.16V230.73H918.54l-.09-3.18H718v188h338.89V324.4Z" transform="translate(-717.97 -200.95)"/><text x="-717.97" y="-200.95"/><text class="cls-2" transform="translate(56.44 139.87)">P<tspan class="cls-3" x="29.59" y="0">l</tspan><tspan x="42.46" y="0">ani</tspan><tspan class="cls-4" x="106.4" y="0">V</tspan><tspan x="135.45" y="0">e</tspan><tspan class="cls-5" x="160.78" y="0">r</tspan><tspan class="cls-6" x="178" y="0">s</tspan><tspan class="cls-7" x="201.13" y="0">e</tspan></text></svg>