<?xml version="1.0" encoding="utf-8"?>
<!-- Generator: Adobe Illustrator 26.0.1, SVG Export Plug-In . SVG Version: 6.00 Build 0)  -->
<svg version="1.1" xmlns="http://www.w3.org/2000/svg" xmlns:xlink="http://www.w3.org/1999/xlink" x="0px" y="0px"
	 viewBox="0 0 56.42 40.23" style="enable-background:new 0 0 56.42 40.23;" xml:space="preserve">
<style type="text/css">
	.st0{display:none;fill:#FC7484;}
	.st1{fill:#FFFFFF;}
	.st2{font-family:'YuGothicUI-Bold';}
	.st3{font-size:10.0234px;}
	.st4{display:none;}
	.st5{display:inline;fill:#FFFFFF;}
	.st6{display:inline;}
	.st7{fill:#FC7484;}
	.st8{display:none;fill:#FFFFFF;}
</style>
<g id="BACKGROUND">
	<rect x="-63.41" y="-90.58" class="st0" width="500" height="500"/>
</g>
<g id="OBJECTS">
	<g>
		<g>
			<path class="st1" d="M11.84,21.02c0-0.28,0.11-0.56,0.32-0.77c0.43-0.43,1.12-0.43,1.54,0L27.64,34.2l13.94-13.94
				c0.43-0.43,1.12-0.43,1.54,0c0.43,0.43,0.43,1.12,0,1.54L28.42,36.51c-0.43,0.43-1.12,0.43-1.54,0L12.16,21.79
				C11.95,21.58,11.84,21.3,11.84,21.02z"/>
			<text transform="matrix(1 0 0 1 2.5712 14.1912)" class="st1 st2 st3">scroll down</text>
		</g>
		<g class="st4">
			<path class="st5" d="M320.91,37.8c0-0.66-0.26-1.3-0.73-1.77L286.42,2.28c-0.98-0.98-2.56-0.98-3.54,0
				c-0.98,0.98-0.98,2.56,0,3.54l31.99,31.99l-31.99,31.99c-0.98,0.98-0.98,2.56,0,3.54c0.49,0.49,1.13,0.73,1.77,0.73
				c0.64,0,1.28-0.24,1.77-0.73l33.76-33.76C320.65,39.1,320.91,38.47,320.91,37.8z"/>
			<path class="st5" d="M342.78,37.8c0-0.66-0.26-1.3-0.73-1.77l-30.3-30.3c-0.98-0.98-2.56-0.98-3.54,0
				c-0.98,0.98-0.98,2.56,0,3.54l28.53,28.53l-28.53,28.53c-0.98,0.98-0.98,2.56,0,3.54c0.49,0.49,1.13,0.73,1.77,0.73
				c0.64,0,1.28-0.24,1.77-0.73l30.3-30.3C342.51,39.1,342.78,38.47,342.78,37.8z"/>
			<path class="st5" d="M363.91,36.04L337.06,9.19c-0.98-0.98-2.56-0.98-3.54,0c-0.98,0.98-0.98,2.56,0,3.54L358.6,37.8
				l-25.08,25.08c-0.98,0.98-0.98,2.56,0,3.54c0.49,0.49,1.13,0.73,1.77,0.73c0.64,0,1.28-0.24,1.77-0.73l26.84-26.84
				c0.47-0.47,0.73-1.1,0.73-1.77C364.64,37.14,364.38,36.5,363.91,36.04z"/>
		</g>
		<g class="st4">
			<path class="st5" d="M174.23,19.86c-0.98-0.98-2.56-0.98-3.54,0c-0.98,0.98-0.98,2.56,0,3.54l14.41,14.41L170.7,52.21
				c-0.98,0.98-0.98,2.56,0,3.54c0.49,0.49,1.13,0.73,1.77,0.73c0.64,0,1.28-0.24,1.77-0.73l16.18-16.18
				c0.47-0.47,0.73-1.1,0.73-1.77s-0.26-1.3-0.73-1.77L174.23,19.86z"/>
			<path class="st5" d="M179.06-2.7c-22.33,0-40.5,18.17-40.5,40.5c0,22.33,18.17,40.5,40.5,40.5s40.5-18.17,40.5-40.5
				C219.56,15.47,201.39-2.7,179.06-2.7z M179.06,73.3c-19.58,0-35.5-15.93-35.5-35.5s15.92-35.5,35.5-35.5s35.5,15.93,35.5,35.5
				S198.64,73.3,179.06,73.3z"/>
		</g>
		<g class="st4">
			<path class="st5" d="M203.36,323.92c0,1.66-1.34,3-3,3h-42.59c-1.66,0-3-1.34-3-3v-71.45c0-1.66,1.34-3,3-3h42.59
				c1.66,0,3,1.34,3,3V323.92z"/>
			<g class="st6">
				<path class="st7" d="M170.97,306.87c-0.64,0-1.28-0.24-1.77-0.73c-0.98-0.98-0.98-2.56,0-3.54l14.41-14.41l-14.41-14.41
					c-0.98-0.98-0.98-2.56,0-3.54c0.98-0.98,2.56-0.98,3.54,0l16.18,16.18c0.98,0.98,0.98,2.56,0,3.54l-16.18,16.18
					C172.25,306.63,171.61,306.87,170.97,306.87z"/>
			</g>
		</g>
		<g class="st4">
			<path class="st5" d="M347.69,323.92c0,1.66-1.34,3-3,3H302.1c-1.66,0-3-1.34-3-3v-71.45c0-1.66,1.34-3,3-3h42.59
				c1.66,0,3,1.34,3,3V323.92z"/>
			<g class="st6">
				<path class="st7" d="M315.31,306.87c-0.32,0-0.65-0.06-0.96-0.19c-0.93-0.39-1.54-1.3-1.54-2.31v-32.36
					c0-1.01,0.61-1.92,1.54-2.31c0.94-0.39,2.01-0.17,2.72,0.54l16.18,16.18c0.98,0.98,0.98,2.56,0,3.54l-16.18,16.18
					C316.6,306.62,315.96,306.87,315.31,306.87z M317.81,278.05v20.29l10.14-10.14L317.81,278.05z"/>
			</g>
		</g>
		<path class="st8" d="M55.44,286.43L31.5,262.49c-0.72-0.72-1.79-0.93-2.72-0.54c-0.93,0.39-1.54,1.3-1.54,2.31v17.91L7.56,262.49
			c-0.72-0.72-1.79-0.93-2.72-0.54c-0.93,0.39-1.54,1.3-1.54,2.31v47.88c0,1.01,0.61,1.92,1.54,2.31c0.31,0.13,0.63,0.19,0.96,0.19
			c0.65,0,1.29-0.25,1.77-0.73l19.67-19.67v17.91c0,1.01,0.61,1.92,1.54,2.31c0.31,0.13,0.63,0.19,0.96,0.19
			c0.65,0,1.29-0.25,1.77-0.73l23.94-23.94C56.41,288.99,56.41,287.4,55.44,286.43z M8.29,306.1v-35.81l17.9,17.91L8.29,306.1z
			 M32.23,306.1V288.2c0,0,0,0,0,0v-17.9l17.9,17.91L32.23,306.1z"/>
		<path class="st8" d="M65.26,160.88L31.5,127.12c-0.98-0.98-2.56-0.98-3.54,0c-0.98,0.98-0.98,2.56,0,3.54l29.49,29.49H-4.03
			c-1.38,0-2.5,1.12-2.5,2.5c0,1.38,1.12,2.5,2.5,2.5h61.48l-29.49,29.49c-0.98,0.98-0.98,2.56,0,3.54
			c0.49,0.49,1.13,0.73,1.77,0.73c0.64,0,1.28-0.24,1.77-0.73l33.76-33.76C66.23,163.43,66.23,161.85,65.26,160.88z"/>
		<path class="st8" d="M214.59,160.86l-13.51-13.51c-0.98-0.98-2.56-0.98-3.54,0c-0.98,0.98-0.98,2.56,0,3.54l9.24,9.24h-25.22
			v-25.22l9.24,9.24c0.49,0.49,1.13,0.73,1.77,0.73c0.64,0,1.28-0.24,1.77-0.73c0.98-0.98,0.98-2.56,0-3.54l-13.51-13.51
			c-0.94-0.94-2.6-0.94-3.54,0l-13.51,13.51c-0.98,0.98-0.98,2.56,0,3.54c0.98,0.98,2.56,0.98,3.54,0l9.24-9.24v25.22h-25.22
			l9.24-9.24c0.98-0.98,0.98-2.56,0-3.54c-0.98-0.98-2.56-0.98-3.54,0l-13.51,13.51c-0.98,0.98-0.98,2.56,0,3.54l13.51,13.51
			c0.49,0.49,1.13,0.73,1.77,0.73c0.64,0,1.28-0.24,1.77-0.73c0.98-0.98,0.98-2.56,0-3.54l-9.24-9.24h25.22v25.22l-9.24-9.24
			c-0.98-0.98-2.56-0.98-3.54,0c-0.98,0.98-0.98,2.56,0,3.54l13.51,13.51c0.49,0.49,1.13,0.73,1.77,0.73c0.64,0,1.28-0.24,1.77-0.73
			l13.51-13.51c0.98-0.98,0.98-2.56,0-3.54c-0.98-0.98-2.56-0.98-3.54,0l-9.24,9.24v-25.22h25.22l-9.24,9.24
			c-0.98,0.98-0.98,2.56,0,3.54c0.49,0.49,1.13,0.73,1.77,0.73c0.64,0,1.28-0.24,1.77-0.73l13.51-13.51
			C215.57,163.42,215.57,161.84,214.59,160.86z"/>
		<path class="st8" d="M349.18,154.54l-16.07-16.07c-0.98-0.98-2.56-0.98-3.54,0c-0.98,0.98-0.98,2.56,0,3.54l11.8,11.81h-13.24
			c-17.23,0-31.25,14.02-31.25,31.25c0,1.38,1.12,2.5,2.5,2.5c1.38,0,2.5-1.12,2.5-2.5c0-14.47,11.78-26.25,26.25-26.25h13.24
			l-11.8,11.81c-0.98,0.98-0.98,2.56,0,3.54c0.49,0.49,1.13,0.73,1.77,0.73c0.64,0,1.28-0.24,1.77-0.73l16.07-16.07
			C350.16,157.1,350.16,155.51,349.18,154.54z"/>
	</g>
</g>
<g id="DESIGNED_BY_FREEPIK" class="st4">
	<g id="XMLID_1784_" class="st6">
		<g>
			<g id="XMLID_458_">
				<path id="XMLID_479_" class="st1" d="M117.68,381.55c-0.25,0-0.43,0.08-0.57,0.25c-0.13,0.17-0.2,0.42-0.2,0.75v2.39
					c-0.3-0.33-0.62-0.58-0.94-0.74c-0.32-0.16-0.71-0.24-1.18-0.24c-0.81,0-1.46,0.28-1.95,0.85c-0.49,0.57-0.74,1.36-0.74,2.37
					c0,0.48,0.06,0.92,0.19,1.33c0.12,0.41,0.31,0.77,0.55,1.07c0.24,0.3,0.53,0.54,0.86,0.7c0.33,0.16,0.69,0.25,1.08,0.25
					c0.29,0,0.56-0.04,0.81-0.12c0.25-0.08,0.48-0.2,0.69-0.36c0.21-0.16,0.43-0.36,0.64-0.61v0.16c0,0.3,0.07,0.53,0.22,0.69
					c0.14,0.16,0.33,0.24,0.55,0.24c0.23,0,0.41-0.08,0.55-0.23c0.14-0.15,0.21-0.39,0.21-0.69v-7.15c0-0.3-0.07-0.53-0.2-0.69
					C118.11,381.63,117.92,381.55,117.68,381.55z M116.62,388.39c-0.14,0.31-0.33,0.53-0.56,0.68c-0.24,0.15-0.5,0.22-0.78,0.22
					c-0.28,0-0.54-0.08-0.78-0.24c-0.24-0.15-0.42-0.39-0.56-0.7c-0.14-0.31-0.21-0.68-0.21-1.12c0-0.42,0.06-0.78,0.19-1.1
					c0.13-0.31,0.31-0.56,0.54-0.72c0.23-0.17,0.5-0.25,0.79-0.25c0.29,0,0.55,0.08,0.79,0.25c0.24,0.17,0.43,0.4,0.57,0.71
					c0.14,0.31,0.21,0.68,0.21,1.11C116.82,387.7,116.76,388.08,116.62,388.39z"/>
				<path id="XMLID_476_" class="st1" d="M125.05,387.47c0.23-0.12,0.35-0.38,0.35-0.79c0-0.44-0.11-0.87-0.34-1.29
					c-0.22-0.42-0.56-0.77-1.02-1.04c-0.45-0.27-0.99-0.4-1.63-0.4c-0.49,0-0.93,0.08-1.33,0.23c-0.4,0.16-0.74,0.38-1.01,0.67
					c-0.27,0.29-0.48,0.64-0.62,1.05c-0.14,0.41-0.21,0.85-0.21,1.33c0,1.02,0.29,1.82,0.87,2.41c0.58,0.59,1.39,0.89,2.43,0.89
					c0.46,0,0.86-0.06,1.21-0.18c0.35-0.12,0.64-0.27,0.88-0.45c0.23-0.18,0.4-0.37,0.52-0.56c0.11-0.2,0.17-0.37,0.17-0.51
					c0-0.17-0.05-0.29-0.15-0.39c-0.1-0.09-0.24-0.14-0.4-0.14c-0.15,0-0.27,0.04-0.36,0.11c-0.2,0.19-0.37,0.34-0.49,0.45
					c-0.12,0.11-0.26,0.22-0.41,0.31c-0.15,0.1-0.31,0.17-0.47,0.21c-0.16,0.04-0.34,0.07-0.53,0.07c-0.29,0-0.55-0.07-0.79-0.21
					c-0.24-0.14-0.43-0.35-0.58-0.64c-0.14-0.28-0.22-0.61-0.22-0.97h3.17C124.48,387.65,124.81,387.59,125.05,387.47z
					 M120.89,386.73c0.05-0.55,0.21-0.96,0.47-1.24c0.26-0.28,0.59-0.42,0.99-0.42c0.42,0,0.77,0.14,1.03,0.41
					c0.26,0.28,0.41,0.69,0.45,1.25H120.89z"/>
				<path id="XMLID_475_" class="st1" d="M130.47,387.03c-0.32-0.17-0.73-0.32-1.23-0.44c-0.42-0.1-0.76-0.19-1-0.26
					c-0.24-0.07-0.43-0.16-0.58-0.27c-0.14-0.11-0.21-0.25-0.21-0.42c0-0.19,0.1-0.34,0.29-0.46c0.2-0.13,0.44-0.19,0.73-0.19
					c0.29,0,0.51,0.05,0.68,0.14c0.17,0.1,0.31,0.22,0.43,0.38c0.15,0.19,0.28,0.33,0.4,0.43c0.12,0.1,0.26,0.14,0.42,0.14
					c0.23,0,0.41-0.06,0.53-0.18c0.12-0.12,0.19-0.27,0.19-0.46c0-0.17-0.06-0.34-0.18-0.52c-0.12-0.18-0.29-0.34-0.51-0.49
					c-0.22-0.15-0.5-0.26-0.84-0.35c-0.33-0.09-0.71-0.13-1.13-0.13c-0.54,0-0.99,0.08-1.37,0.26c-0.38,0.17-0.66,0.4-0.86,0.69
					c-0.19,0.29-0.29,0.6-0.29,0.92c0,0.36,0.11,0.67,0.32,0.92c0.21,0.25,0.49,0.45,0.84,0.6c0.35,0.15,0.8,0.3,1.36,0.44
					c0.49,0.12,0.85,0.24,1.06,0.38c0.22,0.13,0.32,0.34,0.32,0.62c0,0.19-0.1,0.35-0.31,0.5c-0.21,0.14-0.47,0.22-0.8,0.22
					c-0.4,0-0.71-0.07-0.95-0.21c-0.23-0.14-0.43-0.36-0.6-0.65c-0.08-0.15-0.17-0.27-0.26-0.35c-0.09-0.08-0.22-0.12-0.39-0.12
					c-0.2,0-0.36,0.06-0.48,0.19c-0.13,0.13-0.19,0.28-0.19,0.46c0,0.27,0.1,0.54,0.3,0.8c0.2,0.27,0.5,0.49,0.92,0.67
					c0.42,0.18,0.91,0.27,1.5,0.27c0.61,0,1.12-0.08,1.55-0.25c0.43-0.16,0.75-0.41,0.96-0.72c0.22-0.32,0.33-0.7,0.33-1.15
					c0-0.3-0.08-0.56-0.25-0.79C131.03,387.4,130.79,387.2,130.47,387.03z"/>
				<path id="XMLID_474_" class="st1" d="M133.08,383.96c-0.24,0-0.43,0.08-0.58,0.24c-0.15,0.16-0.22,0.4-0.22,0.72v4.64
					c0,0.32,0.07,0.56,0.22,0.73c0.15,0.17,0.34,0.25,0.58,0.25c0.24,0,0.43-0.08,0.59-0.25c0.15-0.17,0.23-0.41,0.23-0.74v-4.68
					c0-0.29-0.08-0.51-0.23-0.68C133.51,384.04,133.32,383.96,133.08,383.96z"/>
				<path id="XMLID_473_" class="st1" d="M133.1,381.62c-0.22,0-0.41,0.07-0.57,0.22c-0.16,0.15-0.25,0.34-0.25,0.57
					c0,0.25,0.08,0.45,0.24,0.59c0.16,0.14,0.35,0.21,0.58,0.21c0.22,0,0.41-0.07,0.56-0.21c0.16-0.14,0.24-0.33,0.24-0.58
					c0-0.26-0.08-0.45-0.24-0.59C133.49,381.69,133.31,381.62,133.1,381.62z"/>
				<path id="XMLID_470_" class="st1" d="M140.22,383.96c-0.22,0-0.4,0.08-0.54,0.23s-0.21,0.37-0.21,0.65v0.22
					c-0.29-0.38-0.6-0.65-0.94-0.83c-0.34-0.17-0.73-0.26-1.19-0.26c-0.38,0-0.74,0.07-1.06,0.2c-0.32,0.14-0.6,0.34-0.85,0.61
					c-0.24,0.27-0.43,0.6-0.57,0.99c-0.13,0.39-0.2,0.83-0.2,1.32c0,0.65,0.11,1.23,0.33,1.73c0.21,0.5,0.53,0.89,0.93,1.16
					c0.41,0.28,0.88,0.42,1.42,0.42c0.45,0,0.84-0.09,1.17-0.27c0.33-0.18,0.61-0.45,0.86-0.8c-0.01,0.53-0.02,0.92-0.04,1.16
					c-0.02,0.24-0.07,0.46-0.16,0.67c-0.09,0.21-0.25,0.37-0.49,0.49c-0.23,0.12-0.56,0.18-0.98,0.18c-0.21,0-0.39-0.02-0.54-0.06
					c-0.16-0.04-0.29-0.09-0.41-0.17c-0.11-0.08-0.22-0.17-0.31-0.28c-0.09-0.11-0.18-0.22-0.27-0.32
					c-0.18-0.21-0.39-0.31-0.62-0.31c-0.19,0-0.35,0.06-0.49,0.19c-0.13,0.12-0.2,0.28-0.2,0.48c0,0.26,0.12,0.52,0.36,0.76
					c0.24,0.25,0.58,0.45,1.02,0.61c0.44,0.16,0.94,0.23,1.5,0.23c0.61,0,1.12-0.06,1.53-0.18c0.41-0.12,0.74-0.31,0.99-0.56
					c0.25-0.25,0.44-0.57,0.55-0.96c0.12-0.39,0.17-0.85,0.17-1.39v-4.71c0-0.38-0.05-0.68-0.16-0.88
					C140.74,384.06,140.53,383.96,140.22,383.96z M139.19,388.32c-0.15,0.29-0.35,0.51-0.59,0.65c-0.24,0.14-0.49,0.22-0.76,0.22
					c-0.46,0-0.83-0.17-1.11-0.5c-0.29-0.34-0.43-0.83-0.43-1.49c0-0.65,0.14-1.15,0.42-1.5c0.28-0.35,0.65-0.53,1.11-0.53
					c0.47,0,0.86,0.18,1.15,0.55c0.29,0.37,0.44,0.88,0.44,1.54C139.42,387.68,139.34,388.03,139.19,388.32z"/>
				<path id="XMLID_469_" class="st1" d="M147.57,385.02c-0.16-0.34-0.42-0.6-0.75-0.79c-0.34-0.19-0.72-0.28-1.15-0.28
					c-0.44,0-0.83,0.09-1.17,0.26c-0.34,0.18-0.65,0.45-0.93,0.83v-0.2c0-0.19-0.04-0.36-0.1-0.49c-0.07-0.13-0.16-0.23-0.28-0.3
					c-0.12-0.07-0.24-0.1-0.39-0.1c-0.23,0-0.42,0.08-0.55,0.23c-0.13,0.15-0.2,0.38-0.2,0.69v4.68c0,0.32,0.08,0.56,0.22,0.73
					c0.15,0.17,0.34,0.25,0.58,0.25c0.24,0,0.44-0.08,0.59-0.25c0.15-0.16,0.23-0.41,0.23-0.74v-2.03c0-0.66,0.04-1.11,0.12-1.35
					c0.11-0.3,0.29-0.54,0.52-0.71c0.24-0.17,0.5-0.26,0.79-0.26c0.44,0,0.74,0.14,0.89,0.42c0.15,0.28,0.22,0.69,0.22,1.23v2.7
					c0,0.32,0.07,0.56,0.23,0.73c0.15,0.17,0.35,0.25,0.59,0.25c0.24,0,0.43-0.08,0.58-0.25c0.15-0.17,0.22-0.41,0.22-0.74v-3.02
					c0-0.36-0.02-0.65-0.05-0.88C147.75,385.44,147.68,385.22,147.57,385.02z"/>
				<path id="XMLID_466_" class="st1" d="M154.41,387.47c0.23-0.12,0.35-0.38,0.35-0.79c0-0.44-0.11-0.87-0.34-1.29
					c-0.22-0.42-0.56-0.77-1.02-1.04c-0.45-0.27-1-0.4-1.63-0.4c-0.49,0-0.93,0.08-1.33,0.23c-0.4,0.16-0.73,0.38-1.01,0.67
					c-0.27,0.29-0.48,0.64-0.62,1.05c-0.14,0.41-0.21,0.85-0.21,1.33c0,1.02,0.29,1.82,0.87,2.41c0.58,0.59,1.39,0.89,2.43,0.89
					c0.46,0,0.86-0.06,1.21-0.18c0.35-0.12,0.64-0.27,0.87-0.45c0.23-0.18,0.4-0.37,0.52-0.56c0.12-0.2,0.17-0.37,0.17-0.51
					c0-0.17-0.05-0.29-0.15-0.39c-0.1-0.09-0.24-0.14-0.4-0.14c-0.15,0-0.27,0.04-0.36,0.11c-0.2,0.19-0.37,0.34-0.49,0.45
					c-0.13,0.11-0.27,0.22-0.42,0.31c-0.15,0.1-0.31,0.17-0.46,0.21c-0.16,0.04-0.34,0.07-0.53,0.07c-0.29,0-0.55-0.07-0.79-0.21
					c-0.24-0.14-0.43-0.35-0.58-0.64c-0.14-0.28-0.22-0.61-0.22-0.97h3.17C153.85,387.65,154.18,387.59,154.41,387.47z
					 M150.26,386.73c0.06-0.55,0.21-0.96,0.47-1.24c0.26-0.28,0.59-0.42,1-0.42c0.42,0,0.76,0.14,1.02,0.41
					c0.26,0.28,0.41,0.69,0.45,1.25H150.26z"/>
				<path id="XMLID_463_" class="st1" d="M160.8,381.55c-0.25,0-0.44,0.08-0.57,0.25c-0.13,0.17-0.2,0.42-0.2,0.75v2.39
					c-0.3-0.33-0.62-0.58-0.94-0.74c-0.32-0.16-0.71-0.24-1.18-0.24c-0.81,0-1.46,0.28-1.95,0.85c-0.49,0.57-0.74,1.36-0.74,2.37
					c0,0.48,0.06,0.92,0.19,1.33s0.31,0.77,0.55,1.07c0.24,0.3,0.53,0.54,0.86,0.7c0.33,0.16,0.69,0.25,1.08,0.25
					c0.29,0,0.56-0.04,0.81-0.12c0.25-0.08,0.48-0.2,0.69-0.36c0.21-0.16,0.43-0.36,0.64-0.61v0.16c0,0.3,0.07,0.53,0.22,0.69
					c0.14,0.16,0.33,0.24,0.55,0.24c0.22,0,0.41-0.08,0.55-0.23c0.14-0.15,0.21-0.39,0.21-0.69v-7.15c0-0.3-0.06-0.53-0.2-0.69
					C161.23,381.63,161.05,381.55,160.8,381.55z M159.73,388.39c-0.14,0.31-0.33,0.53-0.56,0.68c-0.23,0.15-0.49,0.22-0.78,0.22
					c-0.28,0-0.54-0.08-0.78-0.24c-0.24-0.15-0.43-0.39-0.56-0.7c-0.14-0.31-0.21-0.68-0.21-1.12c0-0.42,0.06-0.78,0.19-1.1
					c0.13-0.31,0.31-0.56,0.54-0.72c0.23-0.17,0.5-0.25,0.8-0.25c0.28,0,0.55,0.08,0.79,0.25c0.24,0.17,0.43,0.4,0.57,0.71
					c0.14,0.31,0.21,0.68,0.21,1.11C159.94,387.7,159.88,388.08,159.73,388.39z"/>
				<path id="XMLID_460_" class="st1" d="M170.18,384.35c-0.41-0.25-0.88-0.38-1.42-0.38c-0.47,0-0.86,0.08-1.17,0.25
					c-0.32,0.17-0.63,0.41-0.93,0.73v-2.48c0-0.3-0.07-0.52-0.2-0.69c-0.13-0.16-0.33-0.24-0.58-0.24c-0.24,0-0.42,0.08-0.55,0.25
					c-0.13,0.17-0.2,0.42-0.2,0.74v7.08c0,0.3,0.07,0.54,0.2,0.69c0.14,0.16,0.32,0.23,0.55,0.23c0.22,0,0.41-0.08,0.56-0.23
					c0.15-0.16,0.22-0.39,0.22-0.69v-0.16c0.18,0.21,0.32,0.36,0.43,0.46c0.11,0.1,0.24,0.2,0.39,0.3c0.15,0.1,0.34,0.17,0.56,0.23
					c0.22,0.06,0.45,0.09,0.7,0.09c0.41,0,0.78-0.08,1.12-0.25c0.34-0.16,0.62-0.4,0.86-0.7c0.24-0.3,0.42-0.66,0.54-1.06
					c0.12-0.41,0.19-0.86,0.19-1.35c0-0.67-0.11-1.24-0.34-1.72C170.9,384.98,170.58,384.61,170.18,384.35z M169.39,388.76
					c-0.29,0.35-0.65,0.53-1.05,0.53c-0.48,0-0.86-0.17-1.16-0.52c-0.3-0.35-0.44-0.84-0.44-1.49c0-0.44,0.07-0.82,0.21-1.14
					c0.14-0.32,0.33-0.56,0.57-0.73c0.24-0.17,0.52-0.25,0.83-0.25c0.3,0,0.56,0.08,0.79,0.25c0.22,0.17,0.4,0.41,0.52,0.72
					c0.12,0.31,0.18,0.68,0.18,1.1C169.83,387.9,169.68,388.41,169.39,388.76z"/>
				<path id="XMLID_459_" class="st1" d="M177.12,384.05c-0.11-0.07-0.23-0.1-0.35-0.1c-0.17,0-0.3,0.03-0.39,0.09
					c-0.09,0.06-0.18,0.17-0.26,0.34c-0.08,0.17-0.18,0.41-0.28,0.7l-1.3,3.71l-1.37-3.99c-0.09-0.28-0.2-0.49-0.31-0.64
					c-0.12-0.15-0.29-0.22-0.53-0.22c-0.13,0-0.26,0.04-0.39,0.11c-0.12,0.07-0.22,0.17-0.29,0.29c-0.07,0.12-0.11,0.25-0.11,0.38
					c0,0.13,0.06,0.34,0.18,0.63l1.99,5.02l-0.15,0.36c-0.11,0.26-0.21,0.47-0.29,0.6c-0.09,0.14-0.18,0.23-0.29,0.29
					c-0.11,0.06-0.25,0.08-0.44,0.08c-0.07,0-0.16-0.01-0.27-0.04c-0.08-0.02-0.17-0.04-0.26-0.04c-0.22,0-0.39,0.05-0.5,0.15
					c-0.11,0.1-0.17,0.25-0.17,0.43c0,0.27,0.12,0.46,0.36,0.56c0.24,0.1,0.59,0.15,1.07,0.15c0.49,0,0.87-0.07,1.16-0.22
					c0.29-0.15,0.52-0.36,0.69-0.64c0.17-0.28,0.35-0.66,0.54-1.15l2.11-5.53c0.05-0.14,0.09-0.28,0.13-0.42
					c0.04-0.14,0.06-0.25,0.08-0.32c0-0.12-0.03-0.24-0.09-0.35C177.32,384.21,177.23,384.12,177.12,384.05z"/>
			</g>
			<g id="XMLID_422_">
				<g id="XMLID_437_">
					<path id="XMLID_457_" class="st1" d="M199.52,381.54c-0.53,0-0.96,0.07-1.26,0.2c-0.31,0.14-0.53,0.35-0.65,0.65
						c-0.13,0.3-0.19,0.7-0.19,1.21v0.49h-0.39c-0.54,0-0.81,0.19-0.81,0.58c0,0.17,0.06,0.32,0.2,0.42
						c0.13,0.11,0.31,0.16,0.56,0.16h0.45v4.29c0,0.32,0.07,0.56,0.22,0.73c0.16,0.17,0.35,0.25,0.58,0.25
						c0.24,0,0.44-0.08,0.59-0.25c0.16-0.17,0.23-0.41,0.23-0.73v-4.29h0.4c0.29,0,0.52-0.04,0.68-0.11
						c0.17-0.07,0.25-0.24,0.25-0.5c0-0.37-0.31-0.56-0.93-0.56h-0.4v-0.39c0-0.32,0.04-0.57,0.12-0.74
						c0.08-0.17,0.27-0.26,0.56-0.26c0.11,0,0.24,0.01,0.39,0.03c0.15,0.03,0.27,0.04,0.33,0.04c0.13,0,0.25-0.05,0.35-0.16
						c0.1-0.11,0.15-0.24,0.15-0.38C200.94,381.77,200.47,381.54,199.52,381.54z"/>
					<path id="XMLID_456_" class="st1" d="M204.68,384.21c-0.32-0.17-0.65-0.25-0.99-0.25c-0.34,0-0.61,0.08-0.82,0.25
						c-0.2,0.17-0.4,0.42-0.59,0.75c-0.01-0.33-0.08-0.58-0.2-0.75c-0.12-0.17-0.31-0.25-0.58-0.25c-0.53,0-0.79,0.36-0.79,1.09
						v4.51c0,0.32,0.08,0.57,0.23,0.73c0.15,0.17,0.34,0.25,0.58,0.25c0.24,0,0.43-0.08,0.59-0.25c0.15-0.16,0.23-0.41,0.23-0.74
						v-1.36c0-0.49,0.01-0.9,0.04-1.24c0.03-0.34,0.09-0.63,0.17-0.88c0.08-0.24,0.2-0.42,0.35-0.55c0.15-0.12,0.34-0.19,0.58-0.19
						c0.17,0,0.38,0.04,0.6,0.11c0.22,0.07,0.37,0.11,0.43,0.11c0.16,0,0.3-0.06,0.44-0.19c0.13-0.13,0.2-0.29,0.2-0.49
						C205.16,384.61,205,384.38,204.68,384.21z"/>
					<path id="XMLID_453_" class="st1" d="M210.77,387.47c0.23-0.12,0.35-0.38,0.35-0.79c0-0.44-0.11-0.87-0.34-1.3
						c-0.22-0.42-0.56-0.77-1.02-1.03c-0.45-0.27-1-0.4-1.63-0.4c-0.49,0-0.93,0.08-1.33,0.23c-0.4,0.16-0.73,0.38-1.01,0.67
						c-0.27,0.3-0.48,0.64-0.62,1.05c-0.15,0.41-0.22,0.85-0.22,1.33c0,1.02,0.29,1.82,0.87,2.42c0.58,0.59,1.39,0.89,2.43,0.89
						c0.45,0,0.86-0.06,1.21-0.18c0.35-0.12,0.64-0.27,0.88-0.45c0.23-0.18,0.4-0.37,0.52-0.57c0.11-0.19,0.17-0.37,0.17-0.51
						c0-0.17-0.05-0.29-0.15-0.39c-0.1-0.09-0.24-0.14-0.41-0.14c-0.15,0-0.27,0.04-0.35,0.11c-0.2,0.19-0.37,0.34-0.49,0.45
						c-0.13,0.11-0.26,0.22-0.41,0.31c-0.15,0.1-0.31,0.17-0.47,0.21c-0.16,0.05-0.34,0.07-0.53,0.07c-0.29,0-0.55-0.07-0.79-0.21
						c-0.24-0.14-0.43-0.36-0.58-0.64c-0.14-0.28-0.22-0.61-0.22-0.97h3.17C210.21,387.65,210.53,387.59,210.77,387.47z
						 M206.61,386.73c0.06-0.55,0.21-0.96,0.47-1.24c0.26-0.28,0.59-0.42,0.99-0.42c0.43,0,0.76,0.14,1.03,0.41
						c0.26,0.27,0.4,0.69,0.45,1.24H206.61z"/>
					<path id="XMLID_450_" class="st1" d="M217.51,387.47c0.23-0.12,0.35-0.38,0.35-0.79c0-0.44-0.12-0.87-0.34-1.3
						c-0.22-0.42-0.56-0.77-1.01-1.03c-0.46-0.27-1.01-0.4-1.64-0.4c-0.49,0-0.93,0.08-1.33,0.23c-0.4,0.16-0.74,0.38-1.01,0.67
						c-0.27,0.3-0.48,0.64-0.62,1.05c-0.14,0.41-0.22,0.85-0.22,1.33c0,1.02,0.29,1.82,0.87,2.42c0.58,0.59,1.39,0.89,2.43,0.89
						c0.45,0,0.86-0.06,1.21-0.18c0.35-0.12,0.64-0.27,0.87-0.45c0.23-0.18,0.41-0.37,0.52-0.57c0.12-0.19,0.17-0.37,0.17-0.51
						c0-0.17-0.05-0.29-0.15-0.39c-0.1-0.09-0.24-0.14-0.41-0.14c-0.15,0-0.27,0.04-0.36,0.11c-0.2,0.19-0.37,0.34-0.49,0.45
						c-0.13,0.11-0.26,0.22-0.42,0.31c-0.15,0.1-0.31,0.17-0.47,0.21c-0.16,0.05-0.34,0.07-0.53,0.07c-0.29,0-0.55-0.07-0.79-0.21
						c-0.24-0.14-0.43-0.36-0.58-0.64c-0.14-0.28-0.22-0.61-0.22-0.97h3.17C216.95,387.65,217.28,387.59,217.51,387.47z
						 M213.35,386.73c0.05-0.55,0.21-0.96,0.47-1.24c0.26-0.28,0.59-0.42,1-0.42c0.42,0,0.76,0.14,1.03,0.41
						c0.26,0.27,0.41,0.69,0.45,1.24H213.35z"/>
					<path id="XMLID_447_" class="st1" d="M223.52,384.35c-0.42-0.26-0.88-0.39-1.38-0.39c-0.41,0-0.79,0.09-1.11,0.27
						c-0.33,0.18-0.65,0.45-0.95,0.83v-0.19c0-0.3-0.07-0.52-0.22-0.68c-0.14-0.16-0.33-0.23-0.56-0.23c-0.23,0-0.42,0.08-0.55,0.23
						c-0.13,0.15-0.2,0.38-0.2,0.69v7c0,0.35,0.05,0.62,0.14,0.81c0.1,0.18,0.3,0.27,0.61,0.27c0.52,0,0.78-0.36,0.78-1.07v-2.43
						c0.29,0.36,0.59,0.63,0.9,0.82c0.31,0.19,0.7,0.28,1.17,0.28c0.38,0,0.74-0.08,1.08-0.23c0.33-0.15,0.62-0.37,0.87-0.65
						c0.25-0.28,0.44-0.63,0.58-1.05c0.14-0.42,0.21-0.88,0.21-1.38c0-0.68-0.12-1.26-0.37-1.76
						C224.27,384.99,223.94,384.61,223.52,384.35z M223.04,388.35c-0.14,0.31-0.32,0.55-0.55,0.7c-0.23,0.15-0.48,0.23-0.75,0.23
						c-0.46,0-0.83-0.18-1.13-0.54c-0.31-0.36-0.46-0.86-0.46-1.5c0-0.69,0.16-1.2,0.46-1.56c0.31-0.35,0.68-0.53,1.13-0.53
						c0.28,0,0.54,0.08,0.77,0.25c0.23,0.16,0.41,0.4,0.54,0.71c0.13,0.31,0.2,0.67,0.2,1.1
						C223.25,387.66,223.18,388.04,223.04,388.35z"/>
					<path id="XMLID_446_" class="st1" d="M226.49,383.95c-0.24,0-0.43,0.08-0.58,0.24c-0.14,0.16-0.22,0.4-0.22,0.72v4.64
						c0,0.31,0.08,0.55,0.22,0.73c0.15,0.17,0.34,0.25,0.58,0.25c0.24,0,0.43-0.08,0.59-0.25c0.15-0.16,0.23-0.41,0.23-0.73v-4.69
						c0-0.29-0.07-0.51-0.23-0.67C226.93,384.03,226.73,383.95,226.49,383.95z"/>
					<path id="XMLID_445_" class="st1" d="M226.51,381.61c-0.22,0-0.41,0.08-0.57,0.22c-0.17,0.15-0.25,0.34-0.25,0.57
						c0,0.25,0.08,0.45,0.24,0.59c0.16,0.14,0.35,0.21,0.58,0.21c0.22,0,0.41-0.07,0.57-0.21c0.16-0.14,0.23-0.34,0.23-0.59
						c0-0.26-0.08-0.45-0.24-0.59C226.91,381.68,226.72,381.61,226.51,381.61z"/>
					<path id="XMLID_444_" class="st1" d="M233.85,388.98l-1.66-2.61l0.86-0.79c0.44-0.4,0.66-0.71,0.66-0.95
						c0-0.19-0.07-0.35-0.2-0.48c-0.14-0.13-0.3-0.19-0.51-0.19c-0.17,0-0.31,0.04-0.43,0.13c-0.12,0.09-0.29,0.25-0.52,0.49
						l-1.82,1.91v-3.93c0-0.33-0.07-0.58-0.22-0.75c-0.15-0.17-0.35-0.26-0.59-0.26c-0.26,0-0.46,0.09-0.6,0.28
						c-0.14,0.19-0.21,0.46-0.21,0.82v6.91c0,0.32,0.07,0.57,0.22,0.73c0.14,0.17,0.34,0.25,0.59,0.25c0.21,0,0.4-0.08,0.57-0.25
						c0.16-0.17,0.24-0.41,0.24-0.72v-1.29l0.88-0.83l1.43,2.35c0.18,0.28,0.33,0.47,0.44,0.58c0.1,0.11,0.26,0.16,0.46,0.16
						c0.22,0,0.41-0.07,0.55-0.22c0.14-0.15,0.21-0.35,0.21-0.61c0-0.09-0.03-0.19-0.08-0.29
						C234.06,389.32,233.97,389.18,233.85,388.98z"/>
					<path id="XMLID_443_" class="st1" d="M236.04,388.76c-0.25,0-0.46,0.09-0.63,0.26c-0.17,0.17-0.26,0.38-0.26,0.62
						c0,0.29,0.09,0.51,0.27,0.67c0.18,0.16,0.39,0.24,0.63,0.24c0.24,0,0.44-0.08,0.62-0.24c0.18-0.16,0.26-0.38,0.26-0.66
						c0-0.24-0.09-0.45-0.26-0.63C236.5,388.84,236.29,388.76,236.04,388.76z"/>
					<path id="XMLID_442_" class="st1" d="M243.43,387.83c-0.16,0-0.3,0.05-0.42,0.16c-0.12,0.1-0.22,0.25-0.32,0.43
						c-0.18,0.31-0.38,0.54-0.62,0.69c-0.23,0.15-0.51,0.22-0.83,0.22c-0.24,0-0.46-0.04-0.67-0.14c-0.2-0.09-0.37-0.23-0.52-0.41
						c-0.14-0.18-0.25-0.4-0.33-0.65c-0.07-0.26-0.11-0.54-0.11-0.84c0-0.65,0.14-1.16,0.44-1.53c0.29-0.38,0.68-0.56,1.16-0.56
						c0.33,0,0.61,0.08,0.82,0.23c0.22,0.15,0.42,0.38,0.62,0.67c0.11,0.16,0.21,0.27,0.3,0.34c0.09,0.07,0.2,0.1,0.34,0.1
						c0.2,0,0.38-0.07,0.52-0.2c0.14-0.13,0.21-0.3,0.21-0.49c0-0.19-0.06-0.4-0.19-0.62c-0.13-0.22-0.31-0.42-0.55-0.62
						c-0.25-0.19-0.54-0.35-0.89-0.47c-0.35-0.12-0.74-0.18-1.16-0.18c-0.68,0-1.26,0.14-1.75,0.42c-0.48,0.28-0.86,0.67-1.11,1.18
						c-0.26,0.51-0.39,1.1-0.39,1.76c0,0.98,0.28,1.76,0.84,2.35c0.56,0.58,1.34,0.88,2.35,0.88c0.47,0,0.9-0.07,1.27-0.19
						s0.69-0.29,0.93-0.5c0.25-0.21,0.43-0.42,0.55-0.66c0.12-0.23,0.18-0.45,0.18-0.65c0-0.17-0.07-0.33-0.2-0.48
						C243.79,387.91,243.63,387.83,243.43,387.83z"/>
					<path id="XMLID_439_" class="st1" d="M250.24,384.87c-0.29-0.29-0.63-0.52-1.03-0.67c-0.4-0.16-0.85-0.24-1.34-0.24
						c-0.48,0-0.92,0.08-1.33,0.23c-0.4,0.16-0.74,0.38-1.02,0.67c-0.28,0.29-0.5,0.64-0.65,1.04c-0.15,0.41-0.22,0.86-0.22,1.35
						c0,0.49,0.08,0.93,0.22,1.33c0.15,0.4,0.37,0.75,0.66,1.05c0.29,0.29,0.62,0.52,1.02,0.68c0.39,0.16,0.84,0.24,1.33,0.24
						c0.49,0,0.94-0.08,1.34-0.23c0.39-0.16,0.74-0.38,1.02-0.67c0.29-0.29,0.5-0.64,0.66-1.05c0.15-0.41,0.22-0.85,0.22-1.34
						c0-0.49-0.08-0.93-0.22-1.34C250.74,385.51,250.53,385.16,250.24,384.87z M249.05,388.78c-0.29,0.37-0.68,0.56-1.17,0.56
						c-0.32,0-0.6-0.09-0.85-0.25c-0.24-0.17-0.42-0.41-0.55-0.73c-0.13-0.32-0.19-0.68-0.19-1.11c0-0.43,0.07-0.8,0.2-1.12
						c0.13-0.32,0.31-0.56,0.55-0.73c0.24-0.16,0.52-0.25,0.84-0.25c0.49,0,0.88,0.18,1.17,0.55c0.29,0.37,0.44,0.88,0.44,1.54
						C249.49,387.9,249.34,388.41,249.05,388.78z"/>
					<path id="XMLID_438_" class="st1" d="M260.16,384.23c-0.32-0.17-0.7-0.26-1.14-0.26c-0.38,0-0.72,0.08-1.04,0.24
						c-0.32,0.16-0.61,0.41-0.88,0.74c-0.19-0.33-0.43-0.57-0.72-0.74c-0.29-0.16-0.64-0.24-1.05-0.24c-0.39,0-0.75,0.08-1.07,0.24
						c-0.32,0.16-0.62,0.4-0.9,0.74v-0.15c0-0.26-0.07-0.47-0.22-0.62c-0.15-0.14-0.33-0.22-0.56-0.22c-0.23,0-0.41,0.08-0.56,0.24
						c-0.14,0.16-0.21,0.39-0.21,0.69v4.64c0,0.34,0.08,0.59,0.23,0.76c0.15,0.17,0.36,0.26,0.61,0.26c0.25,0,0.45-0.09,0.6-0.26
						c0.15-0.17,0.23-0.43,0.23-0.76v-2.19c0-0.68,0.08-1.21,0.25-1.57c0.17-0.37,0.52-0.55,1.05-0.55c0.26,0,0.46,0.07,0.58,0.22
						c0.12,0.14,0.2,0.33,0.23,0.55c0.03,0.23,0.04,0.54,0.04,0.95v2.58c0,0.34,0.08,0.59,0.23,0.77c0.15,0.17,0.35,0.25,0.6,0.25
						c0.25,0,0.45-0.08,0.61-0.25c0.16-0.17,0.23-0.43,0.23-0.77v-2.15c0-0.69,0.06-1.18,0.18-1.45c0.11-0.21,0.26-0.38,0.45-0.51
						c0.19-0.12,0.39-0.19,0.61-0.19c0.27,0,0.46,0.07,0.6,0.21c0.13,0.14,0.21,0.32,0.24,0.53c0.03,0.21,0.04,0.49,0.04,0.84v2.72
						c0,0.34,0.08,0.59,0.23,0.76c0.16,0.17,0.36,0.26,0.6,0.26c0.25,0,0.46-0.08,0.61-0.25c0.15-0.17,0.23-0.43,0.23-0.77v-3.16
						c0-0.63-0.07-1.09-0.21-1.39C260.72,384.65,260.48,384.4,260.16,384.23z"/>
				</g>
				<g id="XMLID_423_">
					<path id="XMLID_436_" class="st1" d="M181.86,386.86C181.86,386.85,181.86,386.85,181.86,386.86
						C181.86,386.85,181.86,386.85,181.86,386.86z"/>
					<path id="XMLID_435_" class="st1" d="M181.95,387.38L181.95,387.38c-0.03-0.15-0.05-0.29-0.07-0.44
						C181.89,387.08,181.92,387.23,181.95,387.38z"/>
					<path id="XMLID_434_" class="st1" d="M182.48,388.88c0-0.01-0.01-0.01-0.01-0.02C182.48,388.87,182.48,388.87,182.48,388.88z"
						/>
					<path id="XMLID_433_" class="st1" d="M182.43,388.78c-0.01-0.03-0.03-0.06-0.04-0.08C182.4,388.73,182.42,388.75,182.43,388.78
						z"/>
					<path id="XMLID_432_" class="st1" d="M182.1,387.96c0.08,0.25,0.18,0.49,0.29,0.72C182.27,388.44,182.18,388.2,182.1,387.96
						L182.1,387.96z"/>
					<path id="XMLID_431_" class="st1" d="M187.33,380.1l-0.08-0.26c0.3-0.06,0.52-0.33,0.52-0.65c0-0.36-0.3-0.66-0.66-0.66
						c-0.37,0-0.66,0.3-0.66,0.66c0,0.32,0.22,0.58,0.52,0.65l0.08,0.29c-1.02,0.14-1.83,0.54-1.83,0.54l0.14,0.44
						c0.62-0.21,1.15-0.33,1.64-0.38c0.47-0.05,0.83-0.07,1.13-0.07c0.31,0,0.54,0.03,0.81,0.07l0.08-0.48
						C189.02,380.24,188.29,380.02,187.33,380.1z"/>
					<path id="XMLID_430_" class="st1" d="M182.04,382.6c-0.02,0.02-0.5,0.46-0.88,1.28c-0.02-0.03-0.04-0.05-0.06-0.07
						c-0.11-0.12-0.27-0.19-0.47-0.18h-0.01c-0.12,0-0.21-0.04-0.27-0.09c0.06-0.07,0.09-0.16,0.09-0.26c0-0.23-0.19-0.42-0.42-0.42
						s-0.42,0.19-0.42,0.42c0,0.23,0.19,0.42,0.42,0.42c0.04,0,0.07,0,0.1-0.01c0.1,0.11,0.27,0.21,0.5,0.21
						c0.12,0,0.21,0.03,0.27,0.1c0.07,0.08,0.09,0.18,0.1,0.27l0,0c-0.27,0.74-0.2,1.67-0.2,1.67l0.66,0.03
						c0.01-0.34,0.06-0.92,0.23-1.39c0.33-0.91,0.74-1.47,0.76-1.5l0,0c0.02-0.03,0.05-0.06,0.07-0.09l-0.2-0.14L182.04,382.6z"/>
					<path id="XMLID_429_" class="st1" d="M193.89,381.2c-0.23,0-0.42,0.19-0.42,0.42c0,0.04,0.01,0.07,0.02,0.1
						c-0.12,0.1-0.21,0.27-0.21,0.51c0,0.12-0.03,0.21-0.1,0.27c-0.05,0.05-0.12,0.07-0.18,0.09c-0.49-0.69-1.1-1.11-1.1-1.11
						l-0.47,0.51c0.36,0.33,0.72,0.73,1.08,1.24c0.24,0.35,0.5,0.81,0.71,1.26l0.64-0.3c0,0-0.29-0.72-0.7-1.37
						c0.07-0.03,0.14-0.06,0.21-0.12c0.12-0.11,0.19-0.27,0.18-0.47c0-0.13,0.04-0.22,0.09-0.28c0.07,0.05,0.16,0.09,0.26,0.09
						c0.23,0,0.42-0.19,0.42-0.42C194.3,381.39,194.12,381.2,193.89,381.2z"/>
					<path id="XMLID_428_" class="st1" d="M192.23,386.95c-0.88,0.43-2.33,1-4.24,1.26c-0.75,0.1-1.48,0.14-2.14,0.14
						c-0.87,0-1.64-0.06-2.23-0.14c-0.67-0.08-1.2-0.19-1.52-0.26c0.08,0.25,0.17,0.49,0.28,0.72c0,0,0.01,0.01,0.01,0.02
						c0.01,0.03,0.03,0.06,0.04,0.08c0.01,0.03,0.03,0.05,0.04,0.08c0,0.01,0.01,0.01,0.01,0.02c0.19,0.36,0.42,0.68,0.68,0.97
						c0.9,0.98,1.82,1.14,1.83,1.14l0.01,0l0.01,0c0.01,0,0.82,0.26,2.06,0.26c1.22,0,2.41-0.24,3.55-0.73
						c0.84-0.43,1.64-1.08,2.03-1.67c0.3-0.45,0.53-0.93,0.66-1.43c0.07-0.27,0.12-0.69,0.09-1.14
						C193.15,386.46,192.76,386.69,192.23,386.95z"/>
					<path id="XMLID_424_" class="st1" d="M188.92,381.07c-0.27-0.04-0.48-0.07-0.78-0.07c-0.28,0-0.63,0.02-1.09,0.07
						c-0.46,0.05-0.98,0.17-1.58,0.37c-0.84,0.28-1.6,0.72-2.2,1.28l-0.02,0.02c-0.09,0.08-0.28,0.25-0.49,0.53
						c-0.03,0.04-0.41,0.58-0.71,1.41c-0.23,0.62-0.22,1.53-0.22,1.54v0c0,0.21,0.01,0.42,0.04,0.63c0,0,0,0.01,0,0.01
						c0,0.03,0.01,0.05,0.01,0.08c0.02,0.14,0.04,0.29,0.07,0.44c0.44,0.11,3.05,0.72,5.97,0.31c1.83-0.25,3.22-0.79,4.06-1.2
						c0.7-0.34,1.15-0.65,1.33-0.77c-0.17-0.64-0.65-1.65-1.09-2.28C190.96,381.64,189.61,381.18,188.92,381.07z M185.27,386.33
						c-0.97,0-1.76-0.79-1.76-1.76c0-0.97,0.79-1.76,1.76-1.76c0.97,0,1.76,0.79,1.76,1.76
						C187.03,385.54,186.24,386.33,185.27,386.33z M190.42,385.03c-0.6,0-1.09-0.49-1.09-1.09c0-0.6,0.49-1.09,1.09-1.09
						c0.6,0,1.09,0.49,1.09,1.09C191.51,384.54,191.02,385.03,190.42,385.03z"/>
				</g>
			</g>
		</g>
	</g>
</g>
</svg>
